G04 #@! TF.GenerationSoftware,KiCad,Pcbnew,(5.0.0)*
G04 #@! TF.CreationDate,2019-01-23T06:14:12+09:00*
G04 #@! TF.ProjectId,PDS,5044532E6B696361645F706362000000,rev?*
G04 #@! TF.SameCoordinates,Original*
G04 #@! TF.FileFunction,Paste,Top*
G04 #@! TF.FilePolarity,Positive*
%FSLAX46Y46*%
G04 Gerber Fmt 4.6, Leading zero omitted, Abs format (unit mm)*
G04 Created by KiCad (PCBNEW (5.0.0)) date 01/23/19 06:14:12*
%MOMM*%
%LPD*%
G01*
G04 APERTURE LIST*
%ADD10C,1.000000*%
%ADD11C,0.875000*%
%ADD12R,1.750000X0.550000*%
%ADD13R,0.650000X1.050000*%
%ADD14C,0.600000*%
G04 APERTURE END LIST*
D10*
G04 #@! TO.C,C3*
G36*
X70415191Y-112326053D02*
X70436426Y-112329203D01*
X70457250Y-112334419D01*
X70477462Y-112341651D01*
X70496868Y-112350830D01*
X70515281Y-112361866D01*
X70532524Y-112374654D01*
X70548430Y-112389070D01*
X70562846Y-112404976D01*
X70575634Y-112422219D01*
X70586670Y-112440632D01*
X70595849Y-112460038D01*
X70603081Y-112480250D01*
X70608297Y-112501074D01*
X70611447Y-112522309D01*
X70612500Y-112543750D01*
X70612500Y-113056250D01*
X70611447Y-113077691D01*
X70608297Y-113098926D01*
X70603081Y-113119750D01*
X70595849Y-113139962D01*
X70586670Y-113159368D01*
X70575634Y-113177781D01*
X70562846Y-113195024D01*
X70548430Y-113210930D01*
X70532524Y-113225346D01*
X70515281Y-113238134D01*
X70496868Y-113249170D01*
X70477462Y-113258349D01*
X70457250Y-113265581D01*
X70436426Y-113270797D01*
X70415191Y-113273947D01*
X70393750Y-113275000D01*
X69956250Y-113275000D01*
X69934809Y-113273947D01*
X69913574Y-113270797D01*
X69892750Y-113265581D01*
X69872538Y-113258349D01*
X69853132Y-113249170D01*
X69834719Y-113238134D01*
X69817476Y-113225346D01*
X69801570Y-113210930D01*
X69787154Y-113195024D01*
X69774366Y-113177781D01*
X69763330Y-113159368D01*
X69754151Y-113139962D01*
X69746919Y-113119750D01*
X69741703Y-113098926D01*
X69738553Y-113077691D01*
X69737500Y-113056250D01*
X69737500Y-112543750D01*
X69738553Y-112522309D01*
X69741703Y-112501074D01*
X69746919Y-112480250D01*
X69754151Y-112460038D01*
X69763330Y-112440632D01*
X69774366Y-112422219D01*
X69787154Y-112404976D01*
X69801570Y-112389070D01*
X69817476Y-112374654D01*
X69834719Y-112361866D01*
X69853132Y-112350830D01*
X69872538Y-112341651D01*
X69892750Y-112334419D01*
X69913574Y-112329203D01*
X69934809Y-112326053D01*
X69956250Y-112325000D01*
X70393750Y-112325000D01*
X70415191Y-112326053D01*
X70415191Y-112326053D01*
G37*
D11*
X70175000Y-112800000D03*
D10*
G36*
X68840191Y-112326053D02*
X68861426Y-112329203D01*
X68882250Y-112334419D01*
X68902462Y-112341651D01*
X68921868Y-112350830D01*
X68940281Y-112361866D01*
X68957524Y-112374654D01*
X68973430Y-112389070D01*
X68987846Y-112404976D01*
X69000634Y-112422219D01*
X69011670Y-112440632D01*
X69020849Y-112460038D01*
X69028081Y-112480250D01*
X69033297Y-112501074D01*
X69036447Y-112522309D01*
X69037500Y-112543750D01*
X69037500Y-113056250D01*
X69036447Y-113077691D01*
X69033297Y-113098926D01*
X69028081Y-113119750D01*
X69020849Y-113139962D01*
X69011670Y-113159368D01*
X69000634Y-113177781D01*
X68987846Y-113195024D01*
X68973430Y-113210930D01*
X68957524Y-113225346D01*
X68940281Y-113238134D01*
X68921868Y-113249170D01*
X68902462Y-113258349D01*
X68882250Y-113265581D01*
X68861426Y-113270797D01*
X68840191Y-113273947D01*
X68818750Y-113275000D01*
X68381250Y-113275000D01*
X68359809Y-113273947D01*
X68338574Y-113270797D01*
X68317750Y-113265581D01*
X68297538Y-113258349D01*
X68278132Y-113249170D01*
X68259719Y-113238134D01*
X68242476Y-113225346D01*
X68226570Y-113210930D01*
X68212154Y-113195024D01*
X68199366Y-113177781D01*
X68188330Y-113159368D01*
X68179151Y-113139962D01*
X68171919Y-113119750D01*
X68166703Y-113098926D01*
X68163553Y-113077691D01*
X68162500Y-113056250D01*
X68162500Y-112543750D01*
X68163553Y-112522309D01*
X68166703Y-112501074D01*
X68171919Y-112480250D01*
X68179151Y-112460038D01*
X68188330Y-112440632D01*
X68199366Y-112422219D01*
X68212154Y-112404976D01*
X68226570Y-112389070D01*
X68242476Y-112374654D01*
X68259719Y-112361866D01*
X68278132Y-112350830D01*
X68297538Y-112341651D01*
X68317750Y-112334419D01*
X68338574Y-112329203D01*
X68359809Y-112326053D01*
X68381250Y-112325000D01*
X68818750Y-112325000D01*
X68840191Y-112326053D01*
X68840191Y-112326053D01*
G37*
D11*
X68600000Y-112800000D03*
G04 #@! TD*
D10*
G04 #@! TO.C,C4*
G36*
X70415191Y-114126053D02*
X70436426Y-114129203D01*
X70457250Y-114134419D01*
X70477462Y-114141651D01*
X70496868Y-114150830D01*
X70515281Y-114161866D01*
X70532524Y-114174654D01*
X70548430Y-114189070D01*
X70562846Y-114204976D01*
X70575634Y-114222219D01*
X70586670Y-114240632D01*
X70595849Y-114260038D01*
X70603081Y-114280250D01*
X70608297Y-114301074D01*
X70611447Y-114322309D01*
X70612500Y-114343750D01*
X70612500Y-114856250D01*
X70611447Y-114877691D01*
X70608297Y-114898926D01*
X70603081Y-114919750D01*
X70595849Y-114939962D01*
X70586670Y-114959368D01*
X70575634Y-114977781D01*
X70562846Y-114995024D01*
X70548430Y-115010930D01*
X70532524Y-115025346D01*
X70515281Y-115038134D01*
X70496868Y-115049170D01*
X70477462Y-115058349D01*
X70457250Y-115065581D01*
X70436426Y-115070797D01*
X70415191Y-115073947D01*
X70393750Y-115075000D01*
X69956250Y-115075000D01*
X69934809Y-115073947D01*
X69913574Y-115070797D01*
X69892750Y-115065581D01*
X69872538Y-115058349D01*
X69853132Y-115049170D01*
X69834719Y-115038134D01*
X69817476Y-115025346D01*
X69801570Y-115010930D01*
X69787154Y-114995024D01*
X69774366Y-114977781D01*
X69763330Y-114959368D01*
X69754151Y-114939962D01*
X69746919Y-114919750D01*
X69741703Y-114898926D01*
X69738553Y-114877691D01*
X69737500Y-114856250D01*
X69737500Y-114343750D01*
X69738553Y-114322309D01*
X69741703Y-114301074D01*
X69746919Y-114280250D01*
X69754151Y-114260038D01*
X69763330Y-114240632D01*
X69774366Y-114222219D01*
X69787154Y-114204976D01*
X69801570Y-114189070D01*
X69817476Y-114174654D01*
X69834719Y-114161866D01*
X69853132Y-114150830D01*
X69872538Y-114141651D01*
X69892750Y-114134419D01*
X69913574Y-114129203D01*
X69934809Y-114126053D01*
X69956250Y-114125000D01*
X70393750Y-114125000D01*
X70415191Y-114126053D01*
X70415191Y-114126053D01*
G37*
D11*
X70175000Y-114600000D03*
D10*
G36*
X68840191Y-114126053D02*
X68861426Y-114129203D01*
X68882250Y-114134419D01*
X68902462Y-114141651D01*
X68921868Y-114150830D01*
X68940281Y-114161866D01*
X68957524Y-114174654D01*
X68973430Y-114189070D01*
X68987846Y-114204976D01*
X69000634Y-114222219D01*
X69011670Y-114240632D01*
X69020849Y-114260038D01*
X69028081Y-114280250D01*
X69033297Y-114301074D01*
X69036447Y-114322309D01*
X69037500Y-114343750D01*
X69037500Y-114856250D01*
X69036447Y-114877691D01*
X69033297Y-114898926D01*
X69028081Y-114919750D01*
X69020849Y-114939962D01*
X69011670Y-114959368D01*
X69000634Y-114977781D01*
X68987846Y-114995024D01*
X68973430Y-115010930D01*
X68957524Y-115025346D01*
X68940281Y-115038134D01*
X68921868Y-115049170D01*
X68902462Y-115058349D01*
X68882250Y-115065581D01*
X68861426Y-115070797D01*
X68840191Y-115073947D01*
X68818750Y-115075000D01*
X68381250Y-115075000D01*
X68359809Y-115073947D01*
X68338574Y-115070797D01*
X68317750Y-115065581D01*
X68297538Y-115058349D01*
X68278132Y-115049170D01*
X68259719Y-115038134D01*
X68242476Y-115025346D01*
X68226570Y-115010930D01*
X68212154Y-114995024D01*
X68199366Y-114977781D01*
X68188330Y-114959368D01*
X68179151Y-114939962D01*
X68171919Y-114919750D01*
X68166703Y-114898926D01*
X68163553Y-114877691D01*
X68162500Y-114856250D01*
X68162500Y-114343750D01*
X68163553Y-114322309D01*
X68166703Y-114301074D01*
X68171919Y-114280250D01*
X68179151Y-114260038D01*
X68188330Y-114240632D01*
X68199366Y-114222219D01*
X68212154Y-114204976D01*
X68226570Y-114189070D01*
X68242476Y-114174654D01*
X68259719Y-114161866D01*
X68278132Y-114150830D01*
X68297538Y-114141651D01*
X68317750Y-114134419D01*
X68338574Y-114129203D01*
X68359809Y-114126053D01*
X68381250Y-114125000D01*
X68818750Y-114125000D01*
X68840191Y-114126053D01*
X68840191Y-114126053D01*
G37*
D11*
X68600000Y-114600000D03*
G04 #@! TD*
D10*
G04 #@! TO.C,C5*
G36*
X69840191Y-120926053D02*
X69861426Y-120929203D01*
X69882250Y-120934419D01*
X69902462Y-120941651D01*
X69921868Y-120950830D01*
X69940281Y-120961866D01*
X69957524Y-120974654D01*
X69973430Y-120989070D01*
X69987846Y-121004976D01*
X70000634Y-121022219D01*
X70011670Y-121040632D01*
X70020849Y-121060038D01*
X70028081Y-121080250D01*
X70033297Y-121101074D01*
X70036447Y-121122309D01*
X70037500Y-121143750D01*
X70037500Y-121656250D01*
X70036447Y-121677691D01*
X70033297Y-121698926D01*
X70028081Y-121719750D01*
X70020849Y-121739962D01*
X70011670Y-121759368D01*
X70000634Y-121777781D01*
X69987846Y-121795024D01*
X69973430Y-121810930D01*
X69957524Y-121825346D01*
X69940281Y-121838134D01*
X69921868Y-121849170D01*
X69902462Y-121858349D01*
X69882250Y-121865581D01*
X69861426Y-121870797D01*
X69840191Y-121873947D01*
X69818750Y-121875000D01*
X69381250Y-121875000D01*
X69359809Y-121873947D01*
X69338574Y-121870797D01*
X69317750Y-121865581D01*
X69297538Y-121858349D01*
X69278132Y-121849170D01*
X69259719Y-121838134D01*
X69242476Y-121825346D01*
X69226570Y-121810930D01*
X69212154Y-121795024D01*
X69199366Y-121777781D01*
X69188330Y-121759368D01*
X69179151Y-121739962D01*
X69171919Y-121719750D01*
X69166703Y-121698926D01*
X69163553Y-121677691D01*
X69162500Y-121656250D01*
X69162500Y-121143750D01*
X69163553Y-121122309D01*
X69166703Y-121101074D01*
X69171919Y-121080250D01*
X69179151Y-121060038D01*
X69188330Y-121040632D01*
X69199366Y-121022219D01*
X69212154Y-121004976D01*
X69226570Y-120989070D01*
X69242476Y-120974654D01*
X69259719Y-120961866D01*
X69278132Y-120950830D01*
X69297538Y-120941651D01*
X69317750Y-120934419D01*
X69338574Y-120929203D01*
X69359809Y-120926053D01*
X69381250Y-120925000D01*
X69818750Y-120925000D01*
X69840191Y-120926053D01*
X69840191Y-120926053D01*
G37*
D11*
X69600000Y-121400000D03*
D10*
G36*
X68265191Y-120926053D02*
X68286426Y-120929203D01*
X68307250Y-120934419D01*
X68327462Y-120941651D01*
X68346868Y-120950830D01*
X68365281Y-120961866D01*
X68382524Y-120974654D01*
X68398430Y-120989070D01*
X68412846Y-121004976D01*
X68425634Y-121022219D01*
X68436670Y-121040632D01*
X68445849Y-121060038D01*
X68453081Y-121080250D01*
X68458297Y-121101074D01*
X68461447Y-121122309D01*
X68462500Y-121143750D01*
X68462500Y-121656250D01*
X68461447Y-121677691D01*
X68458297Y-121698926D01*
X68453081Y-121719750D01*
X68445849Y-121739962D01*
X68436670Y-121759368D01*
X68425634Y-121777781D01*
X68412846Y-121795024D01*
X68398430Y-121810930D01*
X68382524Y-121825346D01*
X68365281Y-121838134D01*
X68346868Y-121849170D01*
X68327462Y-121858349D01*
X68307250Y-121865581D01*
X68286426Y-121870797D01*
X68265191Y-121873947D01*
X68243750Y-121875000D01*
X67806250Y-121875000D01*
X67784809Y-121873947D01*
X67763574Y-121870797D01*
X67742750Y-121865581D01*
X67722538Y-121858349D01*
X67703132Y-121849170D01*
X67684719Y-121838134D01*
X67667476Y-121825346D01*
X67651570Y-121810930D01*
X67637154Y-121795024D01*
X67624366Y-121777781D01*
X67613330Y-121759368D01*
X67604151Y-121739962D01*
X67596919Y-121719750D01*
X67591703Y-121698926D01*
X67588553Y-121677691D01*
X67587500Y-121656250D01*
X67587500Y-121143750D01*
X67588553Y-121122309D01*
X67591703Y-121101074D01*
X67596919Y-121080250D01*
X67604151Y-121060038D01*
X67613330Y-121040632D01*
X67624366Y-121022219D01*
X67637154Y-121004976D01*
X67651570Y-120989070D01*
X67667476Y-120974654D01*
X67684719Y-120961866D01*
X67703132Y-120950830D01*
X67722538Y-120941651D01*
X67742750Y-120934419D01*
X67763574Y-120929203D01*
X67784809Y-120926053D01*
X67806250Y-120925000D01*
X68243750Y-120925000D01*
X68265191Y-120926053D01*
X68265191Y-120926053D01*
G37*
D11*
X68025000Y-121400000D03*
G04 #@! TD*
D10*
G04 #@! TO.C,C6*
G36*
X82540191Y-114026053D02*
X82561426Y-114029203D01*
X82582250Y-114034419D01*
X82602462Y-114041651D01*
X82621868Y-114050830D01*
X82640281Y-114061866D01*
X82657524Y-114074654D01*
X82673430Y-114089070D01*
X82687846Y-114104976D01*
X82700634Y-114122219D01*
X82711670Y-114140632D01*
X82720849Y-114160038D01*
X82728081Y-114180250D01*
X82733297Y-114201074D01*
X82736447Y-114222309D01*
X82737500Y-114243750D01*
X82737500Y-114756250D01*
X82736447Y-114777691D01*
X82733297Y-114798926D01*
X82728081Y-114819750D01*
X82720849Y-114839962D01*
X82711670Y-114859368D01*
X82700634Y-114877781D01*
X82687846Y-114895024D01*
X82673430Y-114910930D01*
X82657524Y-114925346D01*
X82640281Y-114938134D01*
X82621868Y-114949170D01*
X82602462Y-114958349D01*
X82582250Y-114965581D01*
X82561426Y-114970797D01*
X82540191Y-114973947D01*
X82518750Y-114975000D01*
X82081250Y-114975000D01*
X82059809Y-114973947D01*
X82038574Y-114970797D01*
X82017750Y-114965581D01*
X81997538Y-114958349D01*
X81978132Y-114949170D01*
X81959719Y-114938134D01*
X81942476Y-114925346D01*
X81926570Y-114910930D01*
X81912154Y-114895024D01*
X81899366Y-114877781D01*
X81888330Y-114859368D01*
X81879151Y-114839962D01*
X81871919Y-114819750D01*
X81866703Y-114798926D01*
X81863553Y-114777691D01*
X81862500Y-114756250D01*
X81862500Y-114243750D01*
X81863553Y-114222309D01*
X81866703Y-114201074D01*
X81871919Y-114180250D01*
X81879151Y-114160038D01*
X81888330Y-114140632D01*
X81899366Y-114122219D01*
X81912154Y-114104976D01*
X81926570Y-114089070D01*
X81942476Y-114074654D01*
X81959719Y-114061866D01*
X81978132Y-114050830D01*
X81997538Y-114041651D01*
X82017750Y-114034419D01*
X82038574Y-114029203D01*
X82059809Y-114026053D01*
X82081250Y-114025000D01*
X82518750Y-114025000D01*
X82540191Y-114026053D01*
X82540191Y-114026053D01*
G37*
D11*
X82300000Y-114500000D03*
D10*
G36*
X84115191Y-114026053D02*
X84136426Y-114029203D01*
X84157250Y-114034419D01*
X84177462Y-114041651D01*
X84196868Y-114050830D01*
X84215281Y-114061866D01*
X84232524Y-114074654D01*
X84248430Y-114089070D01*
X84262846Y-114104976D01*
X84275634Y-114122219D01*
X84286670Y-114140632D01*
X84295849Y-114160038D01*
X84303081Y-114180250D01*
X84308297Y-114201074D01*
X84311447Y-114222309D01*
X84312500Y-114243750D01*
X84312500Y-114756250D01*
X84311447Y-114777691D01*
X84308297Y-114798926D01*
X84303081Y-114819750D01*
X84295849Y-114839962D01*
X84286670Y-114859368D01*
X84275634Y-114877781D01*
X84262846Y-114895024D01*
X84248430Y-114910930D01*
X84232524Y-114925346D01*
X84215281Y-114938134D01*
X84196868Y-114949170D01*
X84177462Y-114958349D01*
X84157250Y-114965581D01*
X84136426Y-114970797D01*
X84115191Y-114973947D01*
X84093750Y-114975000D01*
X83656250Y-114975000D01*
X83634809Y-114973947D01*
X83613574Y-114970797D01*
X83592750Y-114965581D01*
X83572538Y-114958349D01*
X83553132Y-114949170D01*
X83534719Y-114938134D01*
X83517476Y-114925346D01*
X83501570Y-114910930D01*
X83487154Y-114895024D01*
X83474366Y-114877781D01*
X83463330Y-114859368D01*
X83454151Y-114839962D01*
X83446919Y-114819750D01*
X83441703Y-114798926D01*
X83438553Y-114777691D01*
X83437500Y-114756250D01*
X83437500Y-114243750D01*
X83438553Y-114222309D01*
X83441703Y-114201074D01*
X83446919Y-114180250D01*
X83454151Y-114160038D01*
X83463330Y-114140632D01*
X83474366Y-114122219D01*
X83487154Y-114104976D01*
X83501570Y-114089070D01*
X83517476Y-114074654D01*
X83534719Y-114061866D01*
X83553132Y-114050830D01*
X83572538Y-114041651D01*
X83592750Y-114034419D01*
X83613574Y-114029203D01*
X83634809Y-114026053D01*
X83656250Y-114025000D01*
X84093750Y-114025000D01*
X84115191Y-114026053D01*
X84115191Y-114026053D01*
G37*
D11*
X83875000Y-114500000D03*
G04 #@! TD*
D10*
G04 #@! TO.C,C7*
G36*
X62277691Y-116188553D02*
X62298926Y-116191703D01*
X62319750Y-116196919D01*
X62339962Y-116204151D01*
X62359368Y-116213330D01*
X62377781Y-116224366D01*
X62395024Y-116237154D01*
X62410930Y-116251570D01*
X62425346Y-116267476D01*
X62438134Y-116284719D01*
X62449170Y-116303132D01*
X62458349Y-116322538D01*
X62465581Y-116342750D01*
X62470797Y-116363574D01*
X62473947Y-116384809D01*
X62475000Y-116406250D01*
X62475000Y-116843750D01*
X62473947Y-116865191D01*
X62470797Y-116886426D01*
X62465581Y-116907250D01*
X62458349Y-116927462D01*
X62449170Y-116946868D01*
X62438134Y-116965281D01*
X62425346Y-116982524D01*
X62410930Y-116998430D01*
X62395024Y-117012846D01*
X62377781Y-117025634D01*
X62359368Y-117036670D01*
X62339962Y-117045849D01*
X62319750Y-117053081D01*
X62298926Y-117058297D01*
X62277691Y-117061447D01*
X62256250Y-117062500D01*
X61743750Y-117062500D01*
X61722309Y-117061447D01*
X61701074Y-117058297D01*
X61680250Y-117053081D01*
X61660038Y-117045849D01*
X61640632Y-117036670D01*
X61622219Y-117025634D01*
X61604976Y-117012846D01*
X61589070Y-116998430D01*
X61574654Y-116982524D01*
X61561866Y-116965281D01*
X61550830Y-116946868D01*
X61541651Y-116927462D01*
X61534419Y-116907250D01*
X61529203Y-116886426D01*
X61526053Y-116865191D01*
X61525000Y-116843750D01*
X61525000Y-116406250D01*
X61526053Y-116384809D01*
X61529203Y-116363574D01*
X61534419Y-116342750D01*
X61541651Y-116322538D01*
X61550830Y-116303132D01*
X61561866Y-116284719D01*
X61574654Y-116267476D01*
X61589070Y-116251570D01*
X61604976Y-116237154D01*
X61622219Y-116224366D01*
X61640632Y-116213330D01*
X61660038Y-116204151D01*
X61680250Y-116196919D01*
X61701074Y-116191703D01*
X61722309Y-116188553D01*
X61743750Y-116187500D01*
X62256250Y-116187500D01*
X62277691Y-116188553D01*
X62277691Y-116188553D01*
G37*
D11*
X62000000Y-116625000D03*
D10*
G36*
X62277691Y-117763553D02*
X62298926Y-117766703D01*
X62319750Y-117771919D01*
X62339962Y-117779151D01*
X62359368Y-117788330D01*
X62377781Y-117799366D01*
X62395024Y-117812154D01*
X62410930Y-117826570D01*
X62425346Y-117842476D01*
X62438134Y-117859719D01*
X62449170Y-117878132D01*
X62458349Y-117897538D01*
X62465581Y-117917750D01*
X62470797Y-117938574D01*
X62473947Y-117959809D01*
X62475000Y-117981250D01*
X62475000Y-118418750D01*
X62473947Y-118440191D01*
X62470797Y-118461426D01*
X62465581Y-118482250D01*
X62458349Y-118502462D01*
X62449170Y-118521868D01*
X62438134Y-118540281D01*
X62425346Y-118557524D01*
X62410930Y-118573430D01*
X62395024Y-118587846D01*
X62377781Y-118600634D01*
X62359368Y-118611670D01*
X62339962Y-118620849D01*
X62319750Y-118628081D01*
X62298926Y-118633297D01*
X62277691Y-118636447D01*
X62256250Y-118637500D01*
X61743750Y-118637500D01*
X61722309Y-118636447D01*
X61701074Y-118633297D01*
X61680250Y-118628081D01*
X61660038Y-118620849D01*
X61640632Y-118611670D01*
X61622219Y-118600634D01*
X61604976Y-118587846D01*
X61589070Y-118573430D01*
X61574654Y-118557524D01*
X61561866Y-118540281D01*
X61550830Y-118521868D01*
X61541651Y-118502462D01*
X61534419Y-118482250D01*
X61529203Y-118461426D01*
X61526053Y-118440191D01*
X61525000Y-118418750D01*
X61525000Y-117981250D01*
X61526053Y-117959809D01*
X61529203Y-117938574D01*
X61534419Y-117917750D01*
X61541651Y-117897538D01*
X61550830Y-117878132D01*
X61561866Y-117859719D01*
X61574654Y-117842476D01*
X61589070Y-117826570D01*
X61604976Y-117812154D01*
X61622219Y-117799366D01*
X61640632Y-117788330D01*
X61660038Y-117779151D01*
X61680250Y-117771919D01*
X61701074Y-117766703D01*
X61722309Y-117763553D01*
X61743750Y-117762500D01*
X62256250Y-117762500D01*
X62277691Y-117763553D01*
X62277691Y-117763553D01*
G37*
D11*
X62000000Y-118200000D03*
G04 #@! TD*
D10*
G04 #@! TO.C,D1*
G36*
X69577691Y-130463553D02*
X69598926Y-130466703D01*
X69619750Y-130471919D01*
X69639962Y-130479151D01*
X69659368Y-130488330D01*
X69677781Y-130499366D01*
X69695024Y-130512154D01*
X69710930Y-130526570D01*
X69725346Y-130542476D01*
X69738134Y-130559719D01*
X69749170Y-130578132D01*
X69758349Y-130597538D01*
X69765581Y-130617750D01*
X69770797Y-130638574D01*
X69773947Y-130659809D01*
X69775000Y-130681250D01*
X69775000Y-131118750D01*
X69773947Y-131140191D01*
X69770797Y-131161426D01*
X69765581Y-131182250D01*
X69758349Y-131202462D01*
X69749170Y-131221868D01*
X69738134Y-131240281D01*
X69725346Y-131257524D01*
X69710930Y-131273430D01*
X69695024Y-131287846D01*
X69677781Y-131300634D01*
X69659368Y-131311670D01*
X69639962Y-131320849D01*
X69619750Y-131328081D01*
X69598926Y-131333297D01*
X69577691Y-131336447D01*
X69556250Y-131337500D01*
X69043750Y-131337500D01*
X69022309Y-131336447D01*
X69001074Y-131333297D01*
X68980250Y-131328081D01*
X68960038Y-131320849D01*
X68940632Y-131311670D01*
X68922219Y-131300634D01*
X68904976Y-131287846D01*
X68889070Y-131273430D01*
X68874654Y-131257524D01*
X68861866Y-131240281D01*
X68850830Y-131221868D01*
X68841651Y-131202462D01*
X68834419Y-131182250D01*
X68829203Y-131161426D01*
X68826053Y-131140191D01*
X68825000Y-131118750D01*
X68825000Y-130681250D01*
X68826053Y-130659809D01*
X68829203Y-130638574D01*
X68834419Y-130617750D01*
X68841651Y-130597538D01*
X68850830Y-130578132D01*
X68861866Y-130559719D01*
X68874654Y-130542476D01*
X68889070Y-130526570D01*
X68904976Y-130512154D01*
X68922219Y-130499366D01*
X68940632Y-130488330D01*
X68960038Y-130479151D01*
X68980250Y-130471919D01*
X69001074Y-130466703D01*
X69022309Y-130463553D01*
X69043750Y-130462500D01*
X69556250Y-130462500D01*
X69577691Y-130463553D01*
X69577691Y-130463553D01*
G37*
D11*
X69300000Y-130900000D03*
D10*
G36*
X69577691Y-132038553D02*
X69598926Y-132041703D01*
X69619750Y-132046919D01*
X69639962Y-132054151D01*
X69659368Y-132063330D01*
X69677781Y-132074366D01*
X69695024Y-132087154D01*
X69710930Y-132101570D01*
X69725346Y-132117476D01*
X69738134Y-132134719D01*
X69749170Y-132153132D01*
X69758349Y-132172538D01*
X69765581Y-132192750D01*
X69770797Y-132213574D01*
X69773947Y-132234809D01*
X69775000Y-132256250D01*
X69775000Y-132693750D01*
X69773947Y-132715191D01*
X69770797Y-132736426D01*
X69765581Y-132757250D01*
X69758349Y-132777462D01*
X69749170Y-132796868D01*
X69738134Y-132815281D01*
X69725346Y-132832524D01*
X69710930Y-132848430D01*
X69695024Y-132862846D01*
X69677781Y-132875634D01*
X69659368Y-132886670D01*
X69639962Y-132895849D01*
X69619750Y-132903081D01*
X69598926Y-132908297D01*
X69577691Y-132911447D01*
X69556250Y-132912500D01*
X69043750Y-132912500D01*
X69022309Y-132911447D01*
X69001074Y-132908297D01*
X68980250Y-132903081D01*
X68960038Y-132895849D01*
X68940632Y-132886670D01*
X68922219Y-132875634D01*
X68904976Y-132862846D01*
X68889070Y-132848430D01*
X68874654Y-132832524D01*
X68861866Y-132815281D01*
X68850830Y-132796868D01*
X68841651Y-132777462D01*
X68834419Y-132757250D01*
X68829203Y-132736426D01*
X68826053Y-132715191D01*
X68825000Y-132693750D01*
X68825000Y-132256250D01*
X68826053Y-132234809D01*
X68829203Y-132213574D01*
X68834419Y-132192750D01*
X68841651Y-132172538D01*
X68850830Y-132153132D01*
X68861866Y-132134719D01*
X68874654Y-132117476D01*
X68889070Y-132101570D01*
X68904976Y-132087154D01*
X68922219Y-132074366D01*
X68940632Y-132063330D01*
X68960038Y-132054151D01*
X68980250Y-132046919D01*
X69001074Y-132041703D01*
X69022309Y-132038553D01*
X69043750Y-132037500D01*
X69556250Y-132037500D01*
X69577691Y-132038553D01*
X69577691Y-132038553D01*
G37*
D11*
X69300000Y-132475000D03*
G04 #@! TD*
D10*
G04 #@! TO.C,D2*
G36*
X71377691Y-132051053D02*
X71398926Y-132054203D01*
X71419750Y-132059419D01*
X71439962Y-132066651D01*
X71459368Y-132075830D01*
X71477781Y-132086866D01*
X71495024Y-132099654D01*
X71510930Y-132114070D01*
X71525346Y-132129976D01*
X71538134Y-132147219D01*
X71549170Y-132165632D01*
X71558349Y-132185038D01*
X71565581Y-132205250D01*
X71570797Y-132226074D01*
X71573947Y-132247309D01*
X71575000Y-132268750D01*
X71575000Y-132706250D01*
X71573947Y-132727691D01*
X71570797Y-132748926D01*
X71565581Y-132769750D01*
X71558349Y-132789962D01*
X71549170Y-132809368D01*
X71538134Y-132827781D01*
X71525346Y-132845024D01*
X71510930Y-132860930D01*
X71495024Y-132875346D01*
X71477781Y-132888134D01*
X71459368Y-132899170D01*
X71439962Y-132908349D01*
X71419750Y-132915581D01*
X71398926Y-132920797D01*
X71377691Y-132923947D01*
X71356250Y-132925000D01*
X70843750Y-132925000D01*
X70822309Y-132923947D01*
X70801074Y-132920797D01*
X70780250Y-132915581D01*
X70760038Y-132908349D01*
X70740632Y-132899170D01*
X70722219Y-132888134D01*
X70704976Y-132875346D01*
X70689070Y-132860930D01*
X70674654Y-132845024D01*
X70661866Y-132827781D01*
X70650830Y-132809368D01*
X70641651Y-132789962D01*
X70634419Y-132769750D01*
X70629203Y-132748926D01*
X70626053Y-132727691D01*
X70625000Y-132706250D01*
X70625000Y-132268750D01*
X70626053Y-132247309D01*
X70629203Y-132226074D01*
X70634419Y-132205250D01*
X70641651Y-132185038D01*
X70650830Y-132165632D01*
X70661866Y-132147219D01*
X70674654Y-132129976D01*
X70689070Y-132114070D01*
X70704976Y-132099654D01*
X70722219Y-132086866D01*
X70740632Y-132075830D01*
X70760038Y-132066651D01*
X70780250Y-132059419D01*
X70801074Y-132054203D01*
X70822309Y-132051053D01*
X70843750Y-132050000D01*
X71356250Y-132050000D01*
X71377691Y-132051053D01*
X71377691Y-132051053D01*
G37*
D11*
X71100000Y-132487500D03*
D10*
G36*
X71377691Y-130476053D02*
X71398926Y-130479203D01*
X71419750Y-130484419D01*
X71439962Y-130491651D01*
X71459368Y-130500830D01*
X71477781Y-130511866D01*
X71495024Y-130524654D01*
X71510930Y-130539070D01*
X71525346Y-130554976D01*
X71538134Y-130572219D01*
X71549170Y-130590632D01*
X71558349Y-130610038D01*
X71565581Y-130630250D01*
X71570797Y-130651074D01*
X71573947Y-130672309D01*
X71575000Y-130693750D01*
X71575000Y-131131250D01*
X71573947Y-131152691D01*
X71570797Y-131173926D01*
X71565581Y-131194750D01*
X71558349Y-131214962D01*
X71549170Y-131234368D01*
X71538134Y-131252781D01*
X71525346Y-131270024D01*
X71510930Y-131285930D01*
X71495024Y-131300346D01*
X71477781Y-131313134D01*
X71459368Y-131324170D01*
X71439962Y-131333349D01*
X71419750Y-131340581D01*
X71398926Y-131345797D01*
X71377691Y-131348947D01*
X71356250Y-131350000D01*
X70843750Y-131350000D01*
X70822309Y-131348947D01*
X70801074Y-131345797D01*
X70780250Y-131340581D01*
X70760038Y-131333349D01*
X70740632Y-131324170D01*
X70722219Y-131313134D01*
X70704976Y-131300346D01*
X70689070Y-131285930D01*
X70674654Y-131270024D01*
X70661866Y-131252781D01*
X70650830Y-131234368D01*
X70641651Y-131214962D01*
X70634419Y-131194750D01*
X70629203Y-131173926D01*
X70626053Y-131152691D01*
X70625000Y-131131250D01*
X70625000Y-130693750D01*
X70626053Y-130672309D01*
X70629203Y-130651074D01*
X70634419Y-130630250D01*
X70641651Y-130610038D01*
X70650830Y-130590632D01*
X70661866Y-130572219D01*
X70674654Y-130554976D01*
X70689070Y-130539070D01*
X70704976Y-130524654D01*
X70722219Y-130511866D01*
X70740632Y-130500830D01*
X70760038Y-130491651D01*
X70780250Y-130484419D01*
X70801074Y-130479203D01*
X70822309Y-130476053D01*
X70843750Y-130475000D01*
X71356250Y-130475000D01*
X71377691Y-130476053D01*
X71377691Y-130476053D01*
G37*
D11*
X71100000Y-130912500D03*
G04 #@! TD*
D10*
G04 #@! TO.C,D3*
G36*
X73177691Y-130476053D02*
X73198926Y-130479203D01*
X73219750Y-130484419D01*
X73239962Y-130491651D01*
X73259368Y-130500830D01*
X73277781Y-130511866D01*
X73295024Y-130524654D01*
X73310930Y-130539070D01*
X73325346Y-130554976D01*
X73338134Y-130572219D01*
X73349170Y-130590632D01*
X73358349Y-130610038D01*
X73365581Y-130630250D01*
X73370797Y-130651074D01*
X73373947Y-130672309D01*
X73375000Y-130693750D01*
X73375000Y-131131250D01*
X73373947Y-131152691D01*
X73370797Y-131173926D01*
X73365581Y-131194750D01*
X73358349Y-131214962D01*
X73349170Y-131234368D01*
X73338134Y-131252781D01*
X73325346Y-131270024D01*
X73310930Y-131285930D01*
X73295024Y-131300346D01*
X73277781Y-131313134D01*
X73259368Y-131324170D01*
X73239962Y-131333349D01*
X73219750Y-131340581D01*
X73198926Y-131345797D01*
X73177691Y-131348947D01*
X73156250Y-131350000D01*
X72643750Y-131350000D01*
X72622309Y-131348947D01*
X72601074Y-131345797D01*
X72580250Y-131340581D01*
X72560038Y-131333349D01*
X72540632Y-131324170D01*
X72522219Y-131313134D01*
X72504976Y-131300346D01*
X72489070Y-131285930D01*
X72474654Y-131270024D01*
X72461866Y-131252781D01*
X72450830Y-131234368D01*
X72441651Y-131214962D01*
X72434419Y-131194750D01*
X72429203Y-131173926D01*
X72426053Y-131152691D01*
X72425000Y-131131250D01*
X72425000Y-130693750D01*
X72426053Y-130672309D01*
X72429203Y-130651074D01*
X72434419Y-130630250D01*
X72441651Y-130610038D01*
X72450830Y-130590632D01*
X72461866Y-130572219D01*
X72474654Y-130554976D01*
X72489070Y-130539070D01*
X72504976Y-130524654D01*
X72522219Y-130511866D01*
X72540632Y-130500830D01*
X72560038Y-130491651D01*
X72580250Y-130484419D01*
X72601074Y-130479203D01*
X72622309Y-130476053D01*
X72643750Y-130475000D01*
X73156250Y-130475000D01*
X73177691Y-130476053D01*
X73177691Y-130476053D01*
G37*
D11*
X72900000Y-130912500D03*
D10*
G36*
X73177691Y-132051053D02*
X73198926Y-132054203D01*
X73219750Y-132059419D01*
X73239962Y-132066651D01*
X73259368Y-132075830D01*
X73277781Y-132086866D01*
X73295024Y-132099654D01*
X73310930Y-132114070D01*
X73325346Y-132129976D01*
X73338134Y-132147219D01*
X73349170Y-132165632D01*
X73358349Y-132185038D01*
X73365581Y-132205250D01*
X73370797Y-132226074D01*
X73373947Y-132247309D01*
X73375000Y-132268750D01*
X73375000Y-132706250D01*
X73373947Y-132727691D01*
X73370797Y-132748926D01*
X73365581Y-132769750D01*
X73358349Y-132789962D01*
X73349170Y-132809368D01*
X73338134Y-132827781D01*
X73325346Y-132845024D01*
X73310930Y-132860930D01*
X73295024Y-132875346D01*
X73277781Y-132888134D01*
X73259368Y-132899170D01*
X73239962Y-132908349D01*
X73219750Y-132915581D01*
X73198926Y-132920797D01*
X73177691Y-132923947D01*
X73156250Y-132925000D01*
X72643750Y-132925000D01*
X72622309Y-132923947D01*
X72601074Y-132920797D01*
X72580250Y-132915581D01*
X72560038Y-132908349D01*
X72540632Y-132899170D01*
X72522219Y-132888134D01*
X72504976Y-132875346D01*
X72489070Y-132860930D01*
X72474654Y-132845024D01*
X72461866Y-132827781D01*
X72450830Y-132809368D01*
X72441651Y-132789962D01*
X72434419Y-132769750D01*
X72429203Y-132748926D01*
X72426053Y-132727691D01*
X72425000Y-132706250D01*
X72425000Y-132268750D01*
X72426053Y-132247309D01*
X72429203Y-132226074D01*
X72434419Y-132205250D01*
X72441651Y-132185038D01*
X72450830Y-132165632D01*
X72461866Y-132147219D01*
X72474654Y-132129976D01*
X72489070Y-132114070D01*
X72504976Y-132099654D01*
X72522219Y-132086866D01*
X72540632Y-132075830D01*
X72560038Y-132066651D01*
X72580250Y-132059419D01*
X72601074Y-132054203D01*
X72622309Y-132051053D01*
X72643750Y-132050000D01*
X73156250Y-132050000D01*
X73177691Y-132051053D01*
X73177691Y-132051053D01*
G37*
D11*
X72900000Y-132487500D03*
G04 #@! TD*
D10*
G04 #@! TO.C,D4*
G36*
X76777691Y-132051053D02*
X76798926Y-132054203D01*
X76819750Y-132059419D01*
X76839962Y-132066651D01*
X76859368Y-132075830D01*
X76877781Y-132086866D01*
X76895024Y-132099654D01*
X76910930Y-132114070D01*
X76925346Y-132129976D01*
X76938134Y-132147219D01*
X76949170Y-132165632D01*
X76958349Y-132185038D01*
X76965581Y-132205250D01*
X76970797Y-132226074D01*
X76973947Y-132247309D01*
X76975000Y-132268750D01*
X76975000Y-132706250D01*
X76973947Y-132727691D01*
X76970797Y-132748926D01*
X76965581Y-132769750D01*
X76958349Y-132789962D01*
X76949170Y-132809368D01*
X76938134Y-132827781D01*
X76925346Y-132845024D01*
X76910930Y-132860930D01*
X76895024Y-132875346D01*
X76877781Y-132888134D01*
X76859368Y-132899170D01*
X76839962Y-132908349D01*
X76819750Y-132915581D01*
X76798926Y-132920797D01*
X76777691Y-132923947D01*
X76756250Y-132925000D01*
X76243750Y-132925000D01*
X76222309Y-132923947D01*
X76201074Y-132920797D01*
X76180250Y-132915581D01*
X76160038Y-132908349D01*
X76140632Y-132899170D01*
X76122219Y-132888134D01*
X76104976Y-132875346D01*
X76089070Y-132860930D01*
X76074654Y-132845024D01*
X76061866Y-132827781D01*
X76050830Y-132809368D01*
X76041651Y-132789962D01*
X76034419Y-132769750D01*
X76029203Y-132748926D01*
X76026053Y-132727691D01*
X76025000Y-132706250D01*
X76025000Y-132268750D01*
X76026053Y-132247309D01*
X76029203Y-132226074D01*
X76034419Y-132205250D01*
X76041651Y-132185038D01*
X76050830Y-132165632D01*
X76061866Y-132147219D01*
X76074654Y-132129976D01*
X76089070Y-132114070D01*
X76104976Y-132099654D01*
X76122219Y-132086866D01*
X76140632Y-132075830D01*
X76160038Y-132066651D01*
X76180250Y-132059419D01*
X76201074Y-132054203D01*
X76222309Y-132051053D01*
X76243750Y-132050000D01*
X76756250Y-132050000D01*
X76777691Y-132051053D01*
X76777691Y-132051053D01*
G37*
D11*
X76500000Y-132487500D03*
D10*
G36*
X76777691Y-130476053D02*
X76798926Y-130479203D01*
X76819750Y-130484419D01*
X76839962Y-130491651D01*
X76859368Y-130500830D01*
X76877781Y-130511866D01*
X76895024Y-130524654D01*
X76910930Y-130539070D01*
X76925346Y-130554976D01*
X76938134Y-130572219D01*
X76949170Y-130590632D01*
X76958349Y-130610038D01*
X76965581Y-130630250D01*
X76970797Y-130651074D01*
X76973947Y-130672309D01*
X76975000Y-130693750D01*
X76975000Y-131131250D01*
X76973947Y-131152691D01*
X76970797Y-131173926D01*
X76965581Y-131194750D01*
X76958349Y-131214962D01*
X76949170Y-131234368D01*
X76938134Y-131252781D01*
X76925346Y-131270024D01*
X76910930Y-131285930D01*
X76895024Y-131300346D01*
X76877781Y-131313134D01*
X76859368Y-131324170D01*
X76839962Y-131333349D01*
X76819750Y-131340581D01*
X76798926Y-131345797D01*
X76777691Y-131348947D01*
X76756250Y-131350000D01*
X76243750Y-131350000D01*
X76222309Y-131348947D01*
X76201074Y-131345797D01*
X76180250Y-131340581D01*
X76160038Y-131333349D01*
X76140632Y-131324170D01*
X76122219Y-131313134D01*
X76104976Y-131300346D01*
X76089070Y-131285930D01*
X76074654Y-131270024D01*
X76061866Y-131252781D01*
X76050830Y-131234368D01*
X76041651Y-131214962D01*
X76034419Y-131194750D01*
X76029203Y-131173926D01*
X76026053Y-131152691D01*
X76025000Y-131131250D01*
X76025000Y-130693750D01*
X76026053Y-130672309D01*
X76029203Y-130651074D01*
X76034419Y-130630250D01*
X76041651Y-130610038D01*
X76050830Y-130590632D01*
X76061866Y-130572219D01*
X76074654Y-130554976D01*
X76089070Y-130539070D01*
X76104976Y-130524654D01*
X76122219Y-130511866D01*
X76140632Y-130500830D01*
X76160038Y-130491651D01*
X76180250Y-130484419D01*
X76201074Y-130479203D01*
X76222309Y-130476053D01*
X76243750Y-130475000D01*
X76756250Y-130475000D01*
X76777691Y-130476053D01*
X76777691Y-130476053D01*
G37*
D11*
X76500000Y-130912500D03*
G04 #@! TD*
D10*
G04 #@! TO.C,D5*
G36*
X74977691Y-130476053D02*
X74998926Y-130479203D01*
X75019750Y-130484419D01*
X75039962Y-130491651D01*
X75059368Y-130500830D01*
X75077781Y-130511866D01*
X75095024Y-130524654D01*
X75110930Y-130539070D01*
X75125346Y-130554976D01*
X75138134Y-130572219D01*
X75149170Y-130590632D01*
X75158349Y-130610038D01*
X75165581Y-130630250D01*
X75170797Y-130651074D01*
X75173947Y-130672309D01*
X75175000Y-130693750D01*
X75175000Y-131131250D01*
X75173947Y-131152691D01*
X75170797Y-131173926D01*
X75165581Y-131194750D01*
X75158349Y-131214962D01*
X75149170Y-131234368D01*
X75138134Y-131252781D01*
X75125346Y-131270024D01*
X75110930Y-131285930D01*
X75095024Y-131300346D01*
X75077781Y-131313134D01*
X75059368Y-131324170D01*
X75039962Y-131333349D01*
X75019750Y-131340581D01*
X74998926Y-131345797D01*
X74977691Y-131348947D01*
X74956250Y-131350000D01*
X74443750Y-131350000D01*
X74422309Y-131348947D01*
X74401074Y-131345797D01*
X74380250Y-131340581D01*
X74360038Y-131333349D01*
X74340632Y-131324170D01*
X74322219Y-131313134D01*
X74304976Y-131300346D01*
X74289070Y-131285930D01*
X74274654Y-131270024D01*
X74261866Y-131252781D01*
X74250830Y-131234368D01*
X74241651Y-131214962D01*
X74234419Y-131194750D01*
X74229203Y-131173926D01*
X74226053Y-131152691D01*
X74225000Y-131131250D01*
X74225000Y-130693750D01*
X74226053Y-130672309D01*
X74229203Y-130651074D01*
X74234419Y-130630250D01*
X74241651Y-130610038D01*
X74250830Y-130590632D01*
X74261866Y-130572219D01*
X74274654Y-130554976D01*
X74289070Y-130539070D01*
X74304976Y-130524654D01*
X74322219Y-130511866D01*
X74340632Y-130500830D01*
X74360038Y-130491651D01*
X74380250Y-130484419D01*
X74401074Y-130479203D01*
X74422309Y-130476053D01*
X74443750Y-130475000D01*
X74956250Y-130475000D01*
X74977691Y-130476053D01*
X74977691Y-130476053D01*
G37*
D11*
X74700000Y-130912500D03*
D10*
G36*
X74977691Y-132051053D02*
X74998926Y-132054203D01*
X75019750Y-132059419D01*
X75039962Y-132066651D01*
X75059368Y-132075830D01*
X75077781Y-132086866D01*
X75095024Y-132099654D01*
X75110930Y-132114070D01*
X75125346Y-132129976D01*
X75138134Y-132147219D01*
X75149170Y-132165632D01*
X75158349Y-132185038D01*
X75165581Y-132205250D01*
X75170797Y-132226074D01*
X75173947Y-132247309D01*
X75175000Y-132268750D01*
X75175000Y-132706250D01*
X75173947Y-132727691D01*
X75170797Y-132748926D01*
X75165581Y-132769750D01*
X75158349Y-132789962D01*
X75149170Y-132809368D01*
X75138134Y-132827781D01*
X75125346Y-132845024D01*
X75110930Y-132860930D01*
X75095024Y-132875346D01*
X75077781Y-132888134D01*
X75059368Y-132899170D01*
X75039962Y-132908349D01*
X75019750Y-132915581D01*
X74998926Y-132920797D01*
X74977691Y-132923947D01*
X74956250Y-132925000D01*
X74443750Y-132925000D01*
X74422309Y-132923947D01*
X74401074Y-132920797D01*
X74380250Y-132915581D01*
X74360038Y-132908349D01*
X74340632Y-132899170D01*
X74322219Y-132888134D01*
X74304976Y-132875346D01*
X74289070Y-132860930D01*
X74274654Y-132845024D01*
X74261866Y-132827781D01*
X74250830Y-132809368D01*
X74241651Y-132789962D01*
X74234419Y-132769750D01*
X74229203Y-132748926D01*
X74226053Y-132727691D01*
X74225000Y-132706250D01*
X74225000Y-132268750D01*
X74226053Y-132247309D01*
X74229203Y-132226074D01*
X74234419Y-132205250D01*
X74241651Y-132185038D01*
X74250830Y-132165632D01*
X74261866Y-132147219D01*
X74274654Y-132129976D01*
X74289070Y-132114070D01*
X74304976Y-132099654D01*
X74322219Y-132086866D01*
X74340632Y-132075830D01*
X74360038Y-132066651D01*
X74380250Y-132059419D01*
X74401074Y-132054203D01*
X74422309Y-132051053D01*
X74443750Y-132050000D01*
X74956250Y-132050000D01*
X74977691Y-132051053D01*
X74977691Y-132051053D01*
G37*
D11*
X74700000Y-132487500D03*
G04 #@! TD*
D10*
G04 #@! TO.C,D8*
G36*
X78577691Y-132038553D02*
X78598926Y-132041703D01*
X78619750Y-132046919D01*
X78639962Y-132054151D01*
X78659368Y-132063330D01*
X78677781Y-132074366D01*
X78695024Y-132087154D01*
X78710930Y-132101570D01*
X78725346Y-132117476D01*
X78738134Y-132134719D01*
X78749170Y-132153132D01*
X78758349Y-132172538D01*
X78765581Y-132192750D01*
X78770797Y-132213574D01*
X78773947Y-132234809D01*
X78775000Y-132256250D01*
X78775000Y-132693750D01*
X78773947Y-132715191D01*
X78770797Y-132736426D01*
X78765581Y-132757250D01*
X78758349Y-132777462D01*
X78749170Y-132796868D01*
X78738134Y-132815281D01*
X78725346Y-132832524D01*
X78710930Y-132848430D01*
X78695024Y-132862846D01*
X78677781Y-132875634D01*
X78659368Y-132886670D01*
X78639962Y-132895849D01*
X78619750Y-132903081D01*
X78598926Y-132908297D01*
X78577691Y-132911447D01*
X78556250Y-132912500D01*
X78043750Y-132912500D01*
X78022309Y-132911447D01*
X78001074Y-132908297D01*
X77980250Y-132903081D01*
X77960038Y-132895849D01*
X77940632Y-132886670D01*
X77922219Y-132875634D01*
X77904976Y-132862846D01*
X77889070Y-132848430D01*
X77874654Y-132832524D01*
X77861866Y-132815281D01*
X77850830Y-132796868D01*
X77841651Y-132777462D01*
X77834419Y-132757250D01*
X77829203Y-132736426D01*
X77826053Y-132715191D01*
X77825000Y-132693750D01*
X77825000Y-132256250D01*
X77826053Y-132234809D01*
X77829203Y-132213574D01*
X77834419Y-132192750D01*
X77841651Y-132172538D01*
X77850830Y-132153132D01*
X77861866Y-132134719D01*
X77874654Y-132117476D01*
X77889070Y-132101570D01*
X77904976Y-132087154D01*
X77922219Y-132074366D01*
X77940632Y-132063330D01*
X77960038Y-132054151D01*
X77980250Y-132046919D01*
X78001074Y-132041703D01*
X78022309Y-132038553D01*
X78043750Y-132037500D01*
X78556250Y-132037500D01*
X78577691Y-132038553D01*
X78577691Y-132038553D01*
G37*
D11*
X78300000Y-132475000D03*
D10*
G36*
X78577691Y-130463553D02*
X78598926Y-130466703D01*
X78619750Y-130471919D01*
X78639962Y-130479151D01*
X78659368Y-130488330D01*
X78677781Y-130499366D01*
X78695024Y-130512154D01*
X78710930Y-130526570D01*
X78725346Y-130542476D01*
X78738134Y-130559719D01*
X78749170Y-130578132D01*
X78758349Y-130597538D01*
X78765581Y-130617750D01*
X78770797Y-130638574D01*
X78773947Y-130659809D01*
X78775000Y-130681250D01*
X78775000Y-131118750D01*
X78773947Y-131140191D01*
X78770797Y-131161426D01*
X78765581Y-131182250D01*
X78758349Y-131202462D01*
X78749170Y-131221868D01*
X78738134Y-131240281D01*
X78725346Y-131257524D01*
X78710930Y-131273430D01*
X78695024Y-131287846D01*
X78677781Y-131300634D01*
X78659368Y-131311670D01*
X78639962Y-131320849D01*
X78619750Y-131328081D01*
X78598926Y-131333297D01*
X78577691Y-131336447D01*
X78556250Y-131337500D01*
X78043750Y-131337500D01*
X78022309Y-131336447D01*
X78001074Y-131333297D01*
X77980250Y-131328081D01*
X77960038Y-131320849D01*
X77940632Y-131311670D01*
X77922219Y-131300634D01*
X77904976Y-131287846D01*
X77889070Y-131273430D01*
X77874654Y-131257524D01*
X77861866Y-131240281D01*
X77850830Y-131221868D01*
X77841651Y-131202462D01*
X77834419Y-131182250D01*
X77829203Y-131161426D01*
X77826053Y-131140191D01*
X77825000Y-131118750D01*
X77825000Y-130681250D01*
X77826053Y-130659809D01*
X77829203Y-130638574D01*
X77834419Y-130617750D01*
X77841651Y-130597538D01*
X77850830Y-130578132D01*
X77861866Y-130559719D01*
X77874654Y-130542476D01*
X77889070Y-130526570D01*
X77904976Y-130512154D01*
X77922219Y-130499366D01*
X77940632Y-130488330D01*
X77960038Y-130479151D01*
X77980250Y-130471919D01*
X78001074Y-130466703D01*
X78022309Y-130463553D01*
X78043750Y-130462500D01*
X78556250Y-130462500D01*
X78577691Y-130463553D01*
X78577691Y-130463553D01*
G37*
D11*
X78300000Y-130900000D03*
G04 #@! TD*
D12*
G04 #@! TO.C,DCN1*
X92800000Y-115595000D03*
X92800000Y-116865000D03*
X92800000Y-118135000D03*
X92800000Y-119405000D03*
X100200000Y-119405000D03*
X100200000Y-118135000D03*
X100200000Y-116865000D03*
X100200000Y-115595000D03*
G04 #@! TD*
D13*
G04 #@! TO.C,SW1*
X63725000Y-119675000D03*
X63725000Y-115525000D03*
X65875000Y-119675000D03*
X65875000Y-115525000D03*
G04 #@! TD*
D14*
G04 #@! TO.C,U1*
X71214897Y-118625305D03*
D10*
G36*
X71002765Y-119261701D02*
X70578501Y-118837437D01*
X71427029Y-117988909D01*
X71851293Y-118413173D01*
X71002765Y-119261701D01*
X71002765Y-119261701D01*
G37*
D14*
X71780583Y-119190990D03*
D10*
G36*
X71568451Y-119827386D02*
X71144187Y-119403122D01*
X71992715Y-118554594D01*
X72416979Y-118978858D01*
X71568451Y-119827386D01*
X71568451Y-119827386D01*
G37*
D14*
X72346268Y-119756676D03*
D10*
G36*
X72134136Y-120393072D02*
X71709872Y-119968808D01*
X72558400Y-119120280D01*
X72982664Y-119544544D01*
X72134136Y-120393072D01*
X72134136Y-120393072D01*
G37*
D14*
X72911953Y-120322361D03*
D10*
G36*
X72699821Y-120958757D02*
X72275557Y-120534493D01*
X73124085Y-119685965D01*
X73548349Y-120110229D01*
X72699821Y-120958757D01*
X72699821Y-120958757D01*
G37*
D14*
X73477639Y-120888047D03*
D10*
G36*
X73265507Y-121524443D02*
X72841243Y-121100179D01*
X73689771Y-120251651D01*
X74114035Y-120675915D01*
X73265507Y-121524443D01*
X73265507Y-121524443D01*
G37*
D14*
X74043324Y-121453732D03*
D10*
G36*
X73831192Y-122090128D02*
X73406928Y-121665864D01*
X74255456Y-120817336D01*
X74679720Y-121241600D01*
X73831192Y-122090128D01*
X73831192Y-122090128D01*
G37*
D14*
X74609010Y-122019417D03*
D10*
G36*
X74396878Y-122655813D02*
X73972614Y-122231549D01*
X74821142Y-121383021D01*
X75245406Y-121807285D01*
X74396878Y-122655813D01*
X74396878Y-122655813D01*
G37*
D14*
X75174695Y-122585103D03*
D10*
G36*
X74962563Y-123221499D02*
X74538299Y-122797235D01*
X75386827Y-121948707D01*
X75811091Y-122372971D01*
X74962563Y-123221499D01*
X74962563Y-123221499D01*
G37*
D14*
X77225305Y-122585103D03*
D10*
G36*
X77861701Y-122797235D02*
X77437437Y-123221499D01*
X76588909Y-122372971D01*
X77013173Y-121948707D01*
X77861701Y-122797235D01*
X77861701Y-122797235D01*
G37*
D14*
X77790990Y-122019417D03*
D10*
G36*
X78427386Y-122231549D02*
X78003122Y-122655813D01*
X77154594Y-121807285D01*
X77578858Y-121383021D01*
X78427386Y-122231549D01*
X78427386Y-122231549D01*
G37*
D14*
X78356676Y-121453732D03*
D10*
G36*
X78993072Y-121665864D02*
X78568808Y-122090128D01*
X77720280Y-121241600D01*
X78144544Y-120817336D01*
X78993072Y-121665864D01*
X78993072Y-121665864D01*
G37*
D14*
X78922361Y-120888047D03*
D10*
G36*
X79558757Y-121100179D02*
X79134493Y-121524443D01*
X78285965Y-120675915D01*
X78710229Y-120251651D01*
X79558757Y-121100179D01*
X79558757Y-121100179D01*
G37*
D14*
X79488047Y-120322361D03*
D10*
G36*
X80124443Y-120534493D02*
X79700179Y-120958757D01*
X78851651Y-120110229D01*
X79275915Y-119685965D01*
X80124443Y-120534493D01*
X80124443Y-120534493D01*
G37*
D14*
X80053732Y-119756676D03*
D10*
G36*
X80690128Y-119968808D02*
X80265864Y-120393072D01*
X79417336Y-119544544D01*
X79841600Y-119120280D01*
X80690128Y-119968808D01*
X80690128Y-119968808D01*
G37*
D14*
X80619417Y-119190990D03*
D10*
G36*
X81255813Y-119403122D02*
X80831549Y-119827386D01*
X79983021Y-118978858D01*
X80407285Y-118554594D01*
X81255813Y-119403122D01*
X81255813Y-119403122D01*
G37*
D14*
X81185103Y-118625305D03*
D10*
G36*
X81821499Y-118837437D02*
X81397235Y-119261701D01*
X80548707Y-118413173D01*
X80972971Y-117988909D01*
X81821499Y-118837437D01*
X81821499Y-118837437D01*
G37*
D14*
X81185103Y-116574695D03*
D10*
G36*
X80972971Y-117211091D02*
X80548707Y-116786827D01*
X81397235Y-115938299D01*
X81821499Y-116362563D01*
X80972971Y-117211091D01*
X80972971Y-117211091D01*
G37*
D14*
X80619417Y-116009010D03*
D10*
G36*
X80407285Y-116645406D02*
X79983021Y-116221142D01*
X80831549Y-115372614D01*
X81255813Y-115796878D01*
X80407285Y-116645406D01*
X80407285Y-116645406D01*
G37*
D14*
X80053732Y-115443324D03*
D10*
G36*
X79841600Y-116079720D02*
X79417336Y-115655456D01*
X80265864Y-114806928D01*
X80690128Y-115231192D01*
X79841600Y-116079720D01*
X79841600Y-116079720D01*
G37*
D14*
X79488047Y-114877639D03*
D10*
G36*
X79275915Y-115514035D02*
X78851651Y-115089771D01*
X79700179Y-114241243D01*
X80124443Y-114665507D01*
X79275915Y-115514035D01*
X79275915Y-115514035D01*
G37*
D14*
X78922361Y-114311953D03*
D10*
G36*
X78710229Y-114948349D02*
X78285965Y-114524085D01*
X79134493Y-113675557D01*
X79558757Y-114099821D01*
X78710229Y-114948349D01*
X78710229Y-114948349D01*
G37*
D14*
X78356676Y-113746268D03*
D10*
G36*
X78144544Y-114382664D02*
X77720280Y-113958400D01*
X78568808Y-113109872D01*
X78993072Y-113534136D01*
X78144544Y-114382664D01*
X78144544Y-114382664D01*
G37*
D14*
X77790990Y-113180583D03*
D10*
G36*
X77578858Y-113816979D02*
X77154594Y-113392715D01*
X78003122Y-112544187D01*
X78427386Y-112968451D01*
X77578858Y-113816979D01*
X77578858Y-113816979D01*
G37*
D14*
X77225305Y-112614897D03*
D10*
G36*
X77013173Y-113251293D02*
X76588909Y-112827029D01*
X77437437Y-111978501D01*
X77861701Y-112402765D01*
X77013173Y-113251293D01*
X77013173Y-113251293D01*
G37*
D14*
X75174695Y-112614897D03*
D10*
G36*
X75811091Y-112827029D02*
X75386827Y-113251293D01*
X74538299Y-112402765D01*
X74962563Y-111978501D01*
X75811091Y-112827029D01*
X75811091Y-112827029D01*
G37*
D14*
X74609010Y-113180583D03*
D10*
G36*
X75245406Y-113392715D02*
X74821142Y-113816979D01*
X73972614Y-112968451D01*
X74396878Y-112544187D01*
X75245406Y-113392715D01*
X75245406Y-113392715D01*
G37*
D14*
X74043324Y-113746268D03*
D10*
G36*
X74679720Y-113958400D02*
X74255456Y-114382664D01*
X73406928Y-113534136D01*
X73831192Y-113109872D01*
X74679720Y-113958400D01*
X74679720Y-113958400D01*
G37*
D14*
X73477639Y-114311953D03*
D10*
G36*
X74114035Y-114524085D02*
X73689771Y-114948349D01*
X72841243Y-114099821D01*
X73265507Y-113675557D01*
X74114035Y-114524085D01*
X74114035Y-114524085D01*
G37*
D14*
X72911953Y-114877639D03*
D10*
G36*
X73548349Y-115089771D02*
X73124085Y-115514035D01*
X72275557Y-114665507D01*
X72699821Y-114241243D01*
X73548349Y-115089771D01*
X73548349Y-115089771D01*
G37*
D14*
X72346268Y-115443324D03*
D10*
G36*
X72982664Y-115655456D02*
X72558400Y-116079720D01*
X71709872Y-115231192D01*
X72134136Y-114806928D01*
X72982664Y-115655456D01*
X72982664Y-115655456D01*
G37*
D14*
X71780583Y-116009010D03*
D10*
G36*
X72416979Y-116221142D02*
X71992715Y-116645406D01*
X71144187Y-115796878D01*
X71568451Y-115372614D01*
X72416979Y-116221142D01*
X72416979Y-116221142D01*
G37*
D14*
X71214897Y-116574695D03*
D10*
G36*
X71851293Y-116786827D02*
X71427029Y-117211091D01*
X70578501Y-116362563D01*
X71002765Y-115938299D01*
X71851293Y-116786827D01*
X71851293Y-116786827D01*
G37*
G04 #@! TD*
M02*
