G04 #@! TF.GenerationSoftware,KiCad,Pcbnew,(5.0.0)*
G04 #@! TF.CreationDate,2019-01-23T06:14:12+09:00*
G04 #@! TF.ProjectId,PDS,5044532E6B696361645F706362000000,rev?*
G04 #@! TF.SameCoordinates,Original*
G04 #@! TF.FileFunction,Soldermask,Top*
G04 #@! TF.FilePolarity,Negative*
%FSLAX46Y46*%
G04 Gerber Fmt 4.6, Leading zero omitted, Abs format (unit mm)*
G04 Created by KiCad (PCBNEW (5.0.0)) date 01/23/19 06:14:12*
%MOMM*%
%LPD*%
G01*
G04 APERTURE LIST*
%ADD10C,3.600000*%
%ADD11C,1.000000*%
%ADD12C,1.275000*%
%ADD13R,2.150000X0.950000*%
%ADD14R,1.800000X1.800000*%
%ADD15C,1.800000*%
%ADD16C,1.924000*%
%ADD17R,1.050000X1.450000*%
%ADD18C,1.000000*%
G04 APERTURE END LIST*
D10*
G04 #@! TO.C,REF\002A\002A*
X105000000Y-130000000D03*
G04 #@! TD*
G04 #@! TO.C,REF\002A\002A*
X65000000Y-130000000D03*
G04 #@! TD*
G04 #@! TO.C,REF\002A\002A*
X65000000Y-110000000D03*
G04 #@! TD*
D11*
G04 #@! TO.C,C3*
G36*
X70524993Y-112126535D02*
X70555935Y-112131125D01*
X70586278Y-112138725D01*
X70615730Y-112149263D01*
X70644008Y-112162638D01*
X70670838Y-112178719D01*
X70695963Y-112197353D01*
X70719140Y-112218360D01*
X70740147Y-112241537D01*
X70758781Y-112266662D01*
X70774862Y-112293492D01*
X70788237Y-112321770D01*
X70798775Y-112351222D01*
X70806375Y-112381565D01*
X70810965Y-112412507D01*
X70812500Y-112443750D01*
X70812500Y-113156250D01*
X70810965Y-113187493D01*
X70806375Y-113218435D01*
X70798775Y-113248778D01*
X70788237Y-113278230D01*
X70774862Y-113306508D01*
X70758781Y-113333338D01*
X70740147Y-113358463D01*
X70719140Y-113381640D01*
X70695963Y-113402647D01*
X70670838Y-113421281D01*
X70644008Y-113437362D01*
X70615730Y-113450737D01*
X70586278Y-113461275D01*
X70555935Y-113468875D01*
X70524993Y-113473465D01*
X70493750Y-113475000D01*
X69856250Y-113475000D01*
X69825007Y-113473465D01*
X69794065Y-113468875D01*
X69763722Y-113461275D01*
X69734270Y-113450737D01*
X69705992Y-113437362D01*
X69679162Y-113421281D01*
X69654037Y-113402647D01*
X69630860Y-113381640D01*
X69609853Y-113358463D01*
X69591219Y-113333338D01*
X69575138Y-113306508D01*
X69561763Y-113278230D01*
X69551225Y-113248778D01*
X69543625Y-113218435D01*
X69539035Y-113187493D01*
X69537500Y-113156250D01*
X69537500Y-112443750D01*
X69539035Y-112412507D01*
X69543625Y-112381565D01*
X69551225Y-112351222D01*
X69561763Y-112321770D01*
X69575138Y-112293492D01*
X69591219Y-112266662D01*
X69609853Y-112241537D01*
X69630860Y-112218360D01*
X69654037Y-112197353D01*
X69679162Y-112178719D01*
X69705992Y-112162638D01*
X69734270Y-112149263D01*
X69763722Y-112138725D01*
X69794065Y-112131125D01*
X69825007Y-112126535D01*
X69856250Y-112125000D01*
X70493750Y-112125000D01*
X70524993Y-112126535D01*
X70524993Y-112126535D01*
G37*
D12*
X70175000Y-112800000D03*
D11*
G36*
X68949993Y-112126535D02*
X68980935Y-112131125D01*
X69011278Y-112138725D01*
X69040730Y-112149263D01*
X69069008Y-112162638D01*
X69095838Y-112178719D01*
X69120963Y-112197353D01*
X69144140Y-112218360D01*
X69165147Y-112241537D01*
X69183781Y-112266662D01*
X69199862Y-112293492D01*
X69213237Y-112321770D01*
X69223775Y-112351222D01*
X69231375Y-112381565D01*
X69235965Y-112412507D01*
X69237500Y-112443750D01*
X69237500Y-113156250D01*
X69235965Y-113187493D01*
X69231375Y-113218435D01*
X69223775Y-113248778D01*
X69213237Y-113278230D01*
X69199862Y-113306508D01*
X69183781Y-113333338D01*
X69165147Y-113358463D01*
X69144140Y-113381640D01*
X69120963Y-113402647D01*
X69095838Y-113421281D01*
X69069008Y-113437362D01*
X69040730Y-113450737D01*
X69011278Y-113461275D01*
X68980935Y-113468875D01*
X68949993Y-113473465D01*
X68918750Y-113475000D01*
X68281250Y-113475000D01*
X68250007Y-113473465D01*
X68219065Y-113468875D01*
X68188722Y-113461275D01*
X68159270Y-113450737D01*
X68130992Y-113437362D01*
X68104162Y-113421281D01*
X68079037Y-113402647D01*
X68055860Y-113381640D01*
X68034853Y-113358463D01*
X68016219Y-113333338D01*
X68000138Y-113306508D01*
X67986763Y-113278230D01*
X67976225Y-113248778D01*
X67968625Y-113218435D01*
X67964035Y-113187493D01*
X67962500Y-113156250D01*
X67962500Y-112443750D01*
X67964035Y-112412507D01*
X67968625Y-112381565D01*
X67976225Y-112351222D01*
X67986763Y-112321770D01*
X68000138Y-112293492D01*
X68016219Y-112266662D01*
X68034853Y-112241537D01*
X68055860Y-112218360D01*
X68079037Y-112197353D01*
X68104162Y-112178719D01*
X68130992Y-112162638D01*
X68159270Y-112149263D01*
X68188722Y-112138725D01*
X68219065Y-112131125D01*
X68250007Y-112126535D01*
X68281250Y-112125000D01*
X68918750Y-112125000D01*
X68949993Y-112126535D01*
X68949993Y-112126535D01*
G37*
D12*
X68600000Y-112800000D03*
G04 #@! TD*
D11*
G04 #@! TO.C,C4*
G36*
X70524993Y-113926535D02*
X70555935Y-113931125D01*
X70586278Y-113938725D01*
X70615730Y-113949263D01*
X70644008Y-113962638D01*
X70670838Y-113978719D01*
X70695963Y-113997353D01*
X70719140Y-114018360D01*
X70740147Y-114041537D01*
X70758781Y-114066662D01*
X70774862Y-114093492D01*
X70788237Y-114121770D01*
X70798775Y-114151222D01*
X70806375Y-114181565D01*
X70810965Y-114212507D01*
X70812500Y-114243750D01*
X70812500Y-114956250D01*
X70810965Y-114987493D01*
X70806375Y-115018435D01*
X70798775Y-115048778D01*
X70788237Y-115078230D01*
X70774862Y-115106508D01*
X70758781Y-115133338D01*
X70740147Y-115158463D01*
X70719140Y-115181640D01*
X70695963Y-115202647D01*
X70670838Y-115221281D01*
X70644008Y-115237362D01*
X70615730Y-115250737D01*
X70586278Y-115261275D01*
X70555935Y-115268875D01*
X70524993Y-115273465D01*
X70493750Y-115275000D01*
X69856250Y-115275000D01*
X69825007Y-115273465D01*
X69794065Y-115268875D01*
X69763722Y-115261275D01*
X69734270Y-115250737D01*
X69705992Y-115237362D01*
X69679162Y-115221281D01*
X69654037Y-115202647D01*
X69630860Y-115181640D01*
X69609853Y-115158463D01*
X69591219Y-115133338D01*
X69575138Y-115106508D01*
X69561763Y-115078230D01*
X69551225Y-115048778D01*
X69543625Y-115018435D01*
X69539035Y-114987493D01*
X69537500Y-114956250D01*
X69537500Y-114243750D01*
X69539035Y-114212507D01*
X69543625Y-114181565D01*
X69551225Y-114151222D01*
X69561763Y-114121770D01*
X69575138Y-114093492D01*
X69591219Y-114066662D01*
X69609853Y-114041537D01*
X69630860Y-114018360D01*
X69654037Y-113997353D01*
X69679162Y-113978719D01*
X69705992Y-113962638D01*
X69734270Y-113949263D01*
X69763722Y-113938725D01*
X69794065Y-113931125D01*
X69825007Y-113926535D01*
X69856250Y-113925000D01*
X70493750Y-113925000D01*
X70524993Y-113926535D01*
X70524993Y-113926535D01*
G37*
D12*
X70175000Y-114600000D03*
D11*
G36*
X68949993Y-113926535D02*
X68980935Y-113931125D01*
X69011278Y-113938725D01*
X69040730Y-113949263D01*
X69069008Y-113962638D01*
X69095838Y-113978719D01*
X69120963Y-113997353D01*
X69144140Y-114018360D01*
X69165147Y-114041537D01*
X69183781Y-114066662D01*
X69199862Y-114093492D01*
X69213237Y-114121770D01*
X69223775Y-114151222D01*
X69231375Y-114181565D01*
X69235965Y-114212507D01*
X69237500Y-114243750D01*
X69237500Y-114956250D01*
X69235965Y-114987493D01*
X69231375Y-115018435D01*
X69223775Y-115048778D01*
X69213237Y-115078230D01*
X69199862Y-115106508D01*
X69183781Y-115133338D01*
X69165147Y-115158463D01*
X69144140Y-115181640D01*
X69120963Y-115202647D01*
X69095838Y-115221281D01*
X69069008Y-115237362D01*
X69040730Y-115250737D01*
X69011278Y-115261275D01*
X68980935Y-115268875D01*
X68949993Y-115273465D01*
X68918750Y-115275000D01*
X68281250Y-115275000D01*
X68250007Y-115273465D01*
X68219065Y-115268875D01*
X68188722Y-115261275D01*
X68159270Y-115250737D01*
X68130992Y-115237362D01*
X68104162Y-115221281D01*
X68079037Y-115202647D01*
X68055860Y-115181640D01*
X68034853Y-115158463D01*
X68016219Y-115133338D01*
X68000138Y-115106508D01*
X67986763Y-115078230D01*
X67976225Y-115048778D01*
X67968625Y-115018435D01*
X67964035Y-114987493D01*
X67962500Y-114956250D01*
X67962500Y-114243750D01*
X67964035Y-114212507D01*
X67968625Y-114181565D01*
X67976225Y-114151222D01*
X67986763Y-114121770D01*
X68000138Y-114093492D01*
X68016219Y-114066662D01*
X68034853Y-114041537D01*
X68055860Y-114018360D01*
X68079037Y-113997353D01*
X68104162Y-113978719D01*
X68130992Y-113962638D01*
X68159270Y-113949263D01*
X68188722Y-113938725D01*
X68219065Y-113931125D01*
X68250007Y-113926535D01*
X68281250Y-113925000D01*
X68918750Y-113925000D01*
X68949993Y-113926535D01*
X68949993Y-113926535D01*
G37*
D12*
X68600000Y-114600000D03*
G04 #@! TD*
D11*
G04 #@! TO.C,C5*
G36*
X69949993Y-120726535D02*
X69980935Y-120731125D01*
X70011278Y-120738725D01*
X70040730Y-120749263D01*
X70069008Y-120762638D01*
X70095838Y-120778719D01*
X70120963Y-120797353D01*
X70144140Y-120818360D01*
X70165147Y-120841537D01*
X70183781Y-120866662D01*
X70199862Y-120893492D01*
X70213237Y-120921770D01*
X70223775Y-120951222D01*
X70231375Y-120981565D01*
X70235965Y-121012507D01*
X70237500Y-121043750D01*
X70237500Y-121756250D01*
X70235965Y-121787493D01*
X70231375Y-121818435D01*
X70223775Y-121848778D01*
X70213237Y-121878230D01*
X70199862Y-121906508D01*
X70183781Y-121933338D01*
X70165147Y-121958463D01*
X70144140Y-121981640D01*
X70120963Y-122002647D01*
X70095838Y-122021281D01*
X70069008Y-122037362D01*
X70040730Y-122050737D01*
X70011278Y-122061275D01*
X69980935Y-122068875D01*
X69949993Y-122073465D01*
X69918750Y-122075000D01*
X69281250Y-122075000D01*
X69250007Y-122073465D01*
X69219065Y-122068875D01*
X69188722Y-122061275D01*
X69159270Y-122050737D01*
X69130992Y-122037362D01*
X69104162Y-122021281D01*
X69079037Y-122002647D01*
X69055860Y-121981640D01*
X69034853Y-121958463D01*
X69016219Y-121933338D01*
X69000138Y-121906508D01*
X68986763Y-121878230D01*
X68976225Y-121848778D01*
X68968625Y-121818435D01*
X68964035Y-121787493D01*
X68962500Y-121756250D01*
X68962500Y-121043750D01*
X68964035Y-121012507D01*
X68968625Y-120981565D01*
X68976225Y-120951222D01*
X68986763Y-120921770D01*
X69000138Y-120893492D01*
X69016219Y-120866662D01*
X69034853Y-120841537D01*
X69055860Y-120818360D01*
X69079037Y-120797353D01*
X69104162Y-120778719D01*
X69130992Y-120762638D01*
X69159270Y-120749263D01*
X69188722Y-120738725D01*
X69219065Y-120731125D01*
X69250007Y-120726535D01*
X69281250Y-120725000D01*
X69918750Y-120725000D01*
X69949993Y-120726535D01*
X69949993Y-120726535D01*
G37*
D12*
X69600000Y-121400000D03*
D11*
G36*
X68374993Y-120726535D02*
X68405935Y-120731125D01*
X68436278Y-120738725D01*
X68465730Y-120749263D01*
X68494008Y-120762638D01*
X68520838Y-120778719D01*
X68545963Y-120797353D01*
X68569140Y-120818360D01*
X68590147Y-120841537D01*
X68608781Y-120866662D01*
X68624862Y-120893492D01*
X68638237Y-120921770D01*
X68648775Y-120951222D01*
X68656375Y-120981565D01*
X68660965Y-121012507D01*
X68662500Y-121043750D01*
X68662500Y-121756250D01*
X68660965Y-121787493D01*
X68656375Y-121818435D01*
X68648775Y-121848778D01*
X68638237Y-121878230D01*
X68624862Y-121906508D01*
X68608781Y-121933338D01*
X68590147Y-121958463D01*
X68569140Y-121981640D01*
X68545963Y-122002647D01*
X68520838Y-122021281D01*
X68494008Y-122037362D01*
X68465730Y-122050737D01*
X68436278Y-122061275D01*
X68405935Y-122068875D01*
X68374993Y-122073465D01*
X68343750Y-122075000D01*
X67706250Y-122075000D01*
X67675007Y-122073465D01*
X67644065Y-122068875D01*
X67613722Y-122061275D01*
X67584270Y-122050737D01*
X67555992Y-122037362D01*
X67529162Y-122021281D01*
X67504037Y-122002647D01*
X67480860Y-121981640D01*
X67459853Y-121958463D01*
X67441219Y-121933338D01*
X67425138Y-121906508D01*
X67411763Y-121878230D01*
X67401225Y-121848778D01*
X67393625Y-121818435D01*
X67389035Y-121787493D01*
X67387500Y-121756250D01*
X67387500Y-121043750D01*
X67389035Y-121012507D01*
X67393625Y-120981565D01*
X67401225Y-120951222D01*
X67411763Y-120921770D01*
X67425138Y-120893492D01*
X67441219Y-120866662D01*
X67459853Y-120841537D01*
X67480860Y-120818360D01*
X67504037Y-120797353D01*
X67529162Y-120778719D01*
X67555992Y-120762638D01*
X67584270Y-120749263D01*
X67613722Y-120738725D01*
X67644065Y-120731125D01*
X67675007Y-120726535D01*
X67706250Y-120725000D01*
X68343750Y-120725000D01*
X68374993Y-120726535D01*
X68374993Y-120726535D01*
G37*
D12*
X68025000Y-121400000D03*
G04 #@! TD*
D11*
G04 #@! TO.C,C6*
G36*
X82649993Y-113826535D02*
X82680935Y-113831125D01*
X82711278Y-113838725D01*
X82740730Y-113849263D01*
X82769008Y-113862638D01*
X82795838Y-113878719D01*
X82820963Y-113897353D01*
X82844140Y-113918360D01*
X82865147Y-113941537D01*
X82883781Y-113966662D01*
X82899862Y-113993492D01*
X82913237Y-114021770D01*
X82923775Y-114051222D01*
X82931375Y-114081565D01*
X82935965Y-114112507D01*
X82937500Y-114143750D01*
X82937500Y-114856250D01*
X82935965Y-114887493D01*
X82931375Y-114918435D01*
X82923775Y-114948778D01*
X82913237Y-114978230D01*
X82899862Y-115006508D01*
X82883781Y-115033338D01*
X82865147Y-115058463D01*
X82844140Y-115081640D01*
X82820963Y-115102647D01*
X82795838Y-115121281D01*
X82769008Y-115137362D01*
X82740730Y-115150737D01*
X82711278Y-115161275D01*
X82680935Y-115168875D01*
X82649993Y-115173465D01*
X82618750Y-115175000D01*
X81981250Y-115175000D01*
X81950007Y-115173465D01*
X81919065Y-115168875D01*
X81888722Y-115161275D01*
X81859270Y-115150737D01*
X81830992Y-115137362D01*
X81804162Y-115121281D01*
X81779037Y-115102647D01*
X81755860Y-115081640D01*
X81734853Y-115058463D01*
X81716219Y-115033338D01*
X81700138Y-115006508D01*
X81686763Y-114978230D01*
X81676225Y-114948778D01*
X81668625Y-114918435D01*
X81664035Y-114887493D01*
X81662500Y-114856250D01*
X81662500Y-114143750D01*
X81664035Y-114112507D01*
X81668625Y-114081565D01*
X81676225Y-114051222D01*
X81686763Y-114021770D01*
X81700138Y-113993492D01*
X81716219Y-113966662D01*
X81734853Y-113941537D01*
X81755860Y-113918360D01*
X81779037Y-113897353D01*
X81804162Y-113878719D01*
X81830992Y-113862638D01*
X81859270Y-113849263D01*
X81888722Y-113838725D01*
X81919065Y-113831125D01*
X81950007Y-113826535D01*
X81981250Y-113825000D01*
X82618750Y-113825000D01*
X82649993Y-113826535D01*
X82649993Y-113826535D01*
G37*
D12*
X82300000Y-114500000D03*
D11*
G36*
X84224993Y-113826535D02*
X84255935Y-113831125D01*
X84286278Y-113838725D01*
X84315730Y-113849263D01*
X84344008Y-113862638D01*
X84370838Y-113878719D01*
X84395963Y-113897353D01*
X84419140Y-113918360D01*
X84440147Y-113941537D01*
X84458781Y-113966662D01*
X84474862Y-113993492D01*
X84488237Y-114021770D01*
X84498775Y-114051222D01*
X84506375Y-114081565D01*
X84510965Y-114112507D01*
X84512500Y-114143750D01*
X84512500Y-114856250D01*
X84510965Y-114887493D01*
X84506375Y-114918435D01*
X84498775Y-114948778D01*
X84488237Y-114978230D01*
X84474862Y-115006508D01*
X84458781Y-115033338D01*
X84440147Y-115058463D01*
X84419140Y-115081640D01*
X84395963Y-115102647D01*
X84370838Y-115121281D01*
X84344008Y-115137362D01*
X84315730Y-115150737D01*
X84286278Y-115161275D01*
X84255935Y-115168875D01*
X84224993Y-115173465D01*
X84193750Y-115175000D01*
X83556250Y-115175000D01*
X83525007Y-115173465D01*
X83494065Y-115168875D01*
X83463722Y-115161275D01*
X83434270Y-115150737D01*
X83405992Y-115137362D01*
X83379162Y-115121281D01*
X83354037Y-115102647D01*
X83330860Y-115081640D01*
X83309853Y-115058463D01*
X83291219Y-115033338D01*
X83275138Y-115006508D01*
X83261763Y-114978230D01*
X83251225Y-114948778D01*
X83243625Y-114918435D01*
X83239035Y-114887493D01*
X83237500Y-114856250D01*
X83237500Y-114143750D01*
X83239035Y-114112507D01*
X83243625Y-114081565D01*
X83251225Y-114051222D01*
X83261763Y-114021770D01*
X83275138Y-113993492D01*
X83291219Y-113966662D01*
X83309853Y-113941537D01*
X83330860Y-113918360D01*
X83354037Y-113897353D01*
X83379162Y-113878719D01*
X83405992Y-113862638D01*
X83434270Y-113849263D01*
X83463722Y-113838725D01*
X83494065Y-113831125D01*
X83525007Y-113826535D01*
X83556250Y-113825000D01*
X84193750Y-113825000D01*
X84224993Y-113826535D01*
X84224993Y-113826535D01*
G37*
D12*
X83875000Y-114500000D03*
G04 #@! TD*
D11*
G04 #@! TO.C,C7*
G36*
X62387493Y-115989035D02*
X62418435Y-115993625D01*
X62448778Y-116001225D01*
X62478230Y-116011763D01*
X62506508Y-116025138D01*
X62533338Y-116041219D01*
X62558463Y-116059853D01*
X62581640Y-116080860D01*
X62602647Y-116104037D01*
X62621281Y-116129162D01*
X62637362Y-116155992D01*
X62650737Y-116184270D01*
X62661275Y-116213722D01*
X62668875Y-116244065D01*
X62673465Y-116275007D01*
X62675000Y-116306250D01*
X62675000Y-116943750D01*
X62673465Y-116974993D01*
X62668875Y-117005935D01*
X62661275Y-117036278D01*
X62650737Y-117065730D01*
X62637362Y-117094008D01*
X62621281Y-117120838D01*
X62602647Y-117145963D01*
X62581640Y-117169140D01*
X62558463Y-117190147D01*
X62533338Y-117208781D01*
X62506508Y-117224862D01*
X62478230Y-117238237D01*
X62448778Y-117248775D01*
X62418435Y-117256375D01*
X62387493Y-117260965D01*
X62356250Y-117262500D01*
X61643750Y-117262500D01*
X61612507Y-117260965D01*
X61581565Y-117256375D01*
X61551222Y-117248775D01*
X61521770Y-117238237D01*
X61493492Y-117224862D01*
X61466662Y-117208781D01*
X61441537Y-117190147D01*
X61418360Y-117169140D01*
X61397353Y-117145963D01*
X61378719Y-117120838D01*
X61362638Y-117094008D01*
X61349263Y-117065730D01*
X61338725Y-117036278D01*
X61331125Y-117005935D01*
X61326535Y-116974993D01*
X61325000Y-116943750D01*
X61325000Y-116306250D01*
X61326535Y-116275007D01*
X61331125Y-116244065D01*
X61338725Y-116213722D01*
X61349263Y-116184270D01*
X61362638Y-116155992D01*
X61378719Y-116129162D01*
X61397353Y-116104037D01*
X61418360Y-116080860D01*
X61441537Y-116059853D01*
X61466662Y-116041219D01*
X61493492Y-116025138D01*
X61521770Y-116011763D01*
X61551222Y-116001225D01*
X61581565Y-115993625D01*
X61612507Y-115989035D01*
X61643750Y-115987500D01*
X62356250Y-115987500D01*
X62387493Y-115989035D01*
X62387493Y-115989035D01*
G37*
D12*
X62000000Y-116625000D03*
D11*
G36*
X62387493Y-117564035D02*
X62418435Y-117568625D01*
X62448778Y-117576225D01*
X62478230Y-117586763D01*
X62506508Y-117600138D01*
X62533338Y-117616219D01*
X62558463Y-117634853D01*
X62581640Y-117655860D01*
X62602647Y-117679037D01*
X62621281Y-117704162D01*
X62637362Y-117730992D01*
X62650737Y-117759270D01*
X62661275Y-117788722D01*
X62668875Y-117819065D01*
X62673465Y-117850007D01*
X62675000Y-117881250D01*
X62675000Y-118518750D01*
X62673465Y-118549993D01*
X62668875Y-118580935D01*
X62661275Y-118611278D01*
X62650737Y-118640730D01*
X62637362Y-118669008D01*
X62621281Y-118695838D01*
X62602647Y-118720963D01*
X62581640Y-118744140D01*
X62558463Y-118765147D01*
X62533338Y-118783781D01*
X62506508Y-118799862D01*
X62478230Y-118813237D01*
X62448778Y-118823775D01*
X62418435Y-118831375D01*
X62387493Y-118835965D01*
X62356250Y-118837500D01*
X61643750Y-118837500D01*
X61612507Y-118835965D01*
X61581565Y-118831375D01*
X61551222Y-118823775D01*
X61521770Y-118813237D01*
X61493492Y-118799862D01*
X61466662Y-118783781D01*
X61441537Y-118765147D01*
X61418360Y-118744140D01*
X61397353Y-118720963D01*
X61378719Y-118695838D01*
X61362638Y-118669008D01*
X61349263Y-118640730D01*
X61338725Y-118611278D01*
X61331125Y-118580935D01*
X61326535Y-118549993D01*
X61325000Y-118518750D01*
X61325000Y-117881250D01*
X61326535Y-117850007D01*
X61331125Y-117819065D01*
X61338725Y-117788722D01*
X61349263Y-117759270D01*
X61362638Y-117730992D01*
X61378719Y-117704162D01*
X61397353Y-117679037D01*
X61418360Y-117655860D01*
X61441537Y-117634853D01*
X61466662Y-117616219D01*
X61493492Y-117600138D01*
X61521770Y-117586763D01*
X61551222Y-117576225D01*
X61581565Y-117568625D01*
X61612507Y-117564035D01*
X61643750Y-117562500D01*
X62356250Y-117562500D01*
X62387493Y-117564035D01*
X62387493Y-117564035D01*
G37*
D12*
X62000000Y-118200000D03*
G04 #@! TD*
D11*
G04 #@! TO.C,D1*
G36*
X69687493Y-130264035D02*
X69718435Y-130268625D01*
X69748778Y-130276225D01*
X69778230Y-130286763D01*
X69806508Y-130300138D01*
X69833338Y-130316219D01*
X69858463Y-130334853D01*
X69881640Y-130355860D01*
X69902647Y-130379037D01*
X69921281Y-130404162D01*
X69937362Y-130430992D01*
X69950737Y-130459270D01*
X69961275Y-130488722D01*
X69968875Y-130519065D01*
X69973465Y-130550007D01*
X69975000Y-130581250D01*
X69975000Y-131218750D01*
X69973465Y-131249993D01*
X69968875Y-131280935D01*
X69961275Y-131311278D01*
X69950737Y-131340730D01*
X69937362Y-131369008D01*
X69921281Y-131395838D01*
X69902647Y-131420963D01*
X69881640Y-131444140D01*
X69858463Y-131465147D01*
X69833338Y-131483781D01*
X69806508Y-131499862D01*
X69778230Y-131513237D01*
X69748778Y-131523775D01*
X69718435Y-131531375D01*
X69687493Y-131535965D01*
X69656250Y-131537500D01*
X68943750Y-131537500D01*
X68912507Y-131535965D01*
X68881565Y-131531375D01*
X68851222Y-131523775D01*
X68821770Y-131513237D01*
X68793492Y-131499862D01*
X68766662Y-131483781D01*
X68741537Y-131465147D01*
X68718360Y-131444140D01*
X68697353Y-131420963D01*
X68678719Y-131395838D01*
X68662638Y-131369008D01*
X68649263Y-131340730D01*
X68638725Y-131311278D01*
X68631125Y-131280935D01*
X68626535Y-131249993D01*
X68625000Y-131218750D01*
X68625000Y-130581250D01*
X68626535Y-130550007D01*
X68631125Y-130519065D01*
X68638725Y-130488722D01*
X68649263Y-130459270D01*
X68662638Y-130430992D01*
X68678719Y-130404162D01*
X68697353Y-130379037D01*
X68718360Y-130355860D01*
X68741537Y-130334853D01*
X68766662Y-130316219D01*
X68793492Y-130300138D01*
X68821770Y-130286763D01*
X68851222Y-130276225D01*
X68881565Y-130268625D01*
X68912507Y-130264035D01*
X68943750Y-130262500D01*
X69656250Y-130262500D01*
X69687493Y-130264035D01*
X69687493Y-130264035D01*
G37*
D12*
X69300000Y-130900000D03*
D11*
G36*
X69687493Y-131839035D02*
X69718435Y-131843625D01*
X69748778Y-131851225D01*
X69778230Y-131861763D01*
X69806508Y-131875138D01*
X69833338Y-131891219D01*
X69858463Y-131909853D01*
X69881640Y-131930860D01*
X69902647Y-131954037D01*
X69921281Y-131979162D01*
X69937362Y-132005992D01*
X69950737Y-132034270D01*
X69961275Y-132063722D01*
X69968875Y-132094065D01*
X69973465Y-132125007D01*
X69975000Y-132156250D01*
X69975000Y-132793750D01*
X69973465Y-132824993D01*
X69968875Y-132855935D01*
X69961275Y-132886278D01*
X69950737Y-132915730D01*
X69937362Y-132944008D01*
X69921281Y-132970838D01*
X69902647Y-132995963D01*
X69881640Y-133019140D01*
X69858463Y-133040147D01*
X69833338Y-133058781D01*
X69806508Y-133074862D01*
X69778230Y-133088237D01*
X69748778Y-133098775D01*
X69718435Y-133106375D01*
X69687493Y-133110965D01*
X69656250Y-133112500D01*
X68943750Y-133112500D01*
X68912507Y-133110965D01*
X68881565Y-133106375D01*
X68851222Y-133098775D01*
X68821770Y-133088237D01*
X68793492Y-133074862D01*
X68766662Y-133058781D01*
X68741537Y-133040147D01*
X68718360Y-133019140D01*
X68697353Y-132995963D01*
X68678719Y-132970838D01*
X68662638Y-132944008D01*
X68649263Y-132915730D01*
X68638725Y-132886278D01*
X68631125Y-132855935D01*
X68626535Y-132824993D01*
X68625000Y-132793750D01*
X68625000Y-132156250D01*
X68626535Y-132125007D01*
X68631125Y-132094065D01*
X68638725Y-132063722D01*
X68649263Y-132034270D01*
X68662638Y-132005992D01*
X68678719Y-131979162D01*
X68697353Y-131954037D01*
X68718360Y-131930860D01*
X68741537Y-131909853D01*
X68766662Y-131891219D01*
X68793492Y-131875138D01*
X68821770Y-131861763D01*
X68851222Y-131851225D01*
X68881565Y-131843625D01*
X68912507Y-131839035D01*
X68943750Y-131837500D01*
X69656250Y-131837500D01*
X69687493Y-131839035D01*
X69687493Y-131839035D01*
G37*
D12*
X69300000Y-132475000D03*
G04 #@! TD*
D11*
G04 #@! TO.C,D2*
G36*
X71487493Y-131851535D02*
X71518435Y-131856125D01*
X71548778Y-131863725D01*
X71578230Y-131874263D01*
X71606508Y-131887638D01*
X71633338Y-131903719D01*
X71658463Y-131922353D01*
X71681640Y-131943360D01*
X71702647Y-131966537D01*
X71721281Y-131991662D01*
X71737362Y-132018492D01*
X71750737Y-132046770D01*
X71761275Y-132076222D01*
X71768875Y-132106565D01*
X71773465Y-132137507D01*
X71775000Y-132168750D01*
X71775000Y-132806250D01*
X71773465Y-132837493D01*
X71768875Y-132868435D01*
X71761275Y-132898778D01*
X71750737Y-132928230D01*
X71737362Y-132956508D01*
X71721281Y-132983338D01*
X71702647Y-133008463D01*
X71681640Y-133031640D01*
X71658463Y-133052647D01*
X71633338Y-133071281D01*
X71606508Y-133087362D01*
X71578230Y-133100737D01*
X71548778Y-133111275D01*
X71518435Y-133118875D01*
X71487493Y-133123465D01*
X71456250Y-133125000D01*
X70743750Y-133125000D01*
X70712507Y-133123465D01*
X70681565Y-133118875D01*
X70651222Y-133111275D01*
X70621770Y-133100737D01*
X70593492Y-133087362D01*
X70566662Y-133071281D01*
X70541537Y-133052647D01*
X70518360Y-133031640D01*
X70497353Y-133008463D01*
X70478719Y-132983338D01*
X70462638Y-132956508D01*
X70449263Y-132928230D01*
X70438725Y-132898778D01*
X70431125Y-132868435D01*
X70426535Y-132837493D01*
X70425000Y-132806250D01*
X70425000Y-132168750D01*
X70426535Y-132137507D01*
X70431125Y-132106565D01*
X70438725Y-132076222D01*
X70449263Y-132046770D01*
X70462638Y-132018492D01*
X70478719Y-131991662D01*
X70497353Y-131966537D01*
X70518360Y-131943360D01*
X70541537Y-131922353D01*
X70566662Y-131903719D01*
X70593492Y-131887638D01*
X70621770Y-131874263D01*
X70651222Y-131863725D01*
X70681565Y-131856125D01*
X70712507Y-131851535D01*
X70743750Y-131850000D01*
X71456250Y-131850000D01*
X71487493Y-131851535D01*
X71487493Y-131851535D01*
G37*
D12*
X71100000Y-132487500D03*
D11*
G36*
X71487493Y-130276535D02*
X71518435Y-130281125D01*
X71548778Y-130288725D01*
X71578230Y-130299263D01*
X71606508Y-130312638D01*
X71633338Y-130328719D01*
X71658463Y-130347353D01*
X71681640Y-130368360D01*
X71702647Y-130391537D01*
X71721281Y-130416662D01*
X71737362Y-130443492D01*
X71750737Y-130471770D01*
X71761275Y-130501222D01*
X71768875Y-130531565D01*
X71773465Y-130562507D01*
X71775000Y-130593750D01*
X71775000Y-131231250D01*
X71773465Y-131262493D01*
X71768875Y-131293435D01*
X71761275Y-131323778D01*
X71750737Y-131353230D01*
X71737362Y-131381508D01*
X71721281Y-131408338D01*
X71702647Y-131433463D01*
X71681640Y-131456640D01*
X71658463Y-131477647D01*
X71633338Y-131496281D01*
X71606508Y-131512362D01*
X71578230Y-131525737D01*
X71548778Y-131536275D01*
X71518435Y-131543875D01*
X71487493Y-131548465D01*
X71456250Y-131550000D01*
X70743750Y-131550000D01*
X70712507Y-131548465D01*
X70681565Y-131543875D01*
X70651222Y-131536275D01*
X70621770Y-131525737D01*
X70593492Y-131512362D01*
X70566662Y-131496281D01*
X70541537Y-131477647D01*
X70518360Y-131456640D01*
X70497353Y-131433463D01*
X70478719Y-131408338D01*
X70462638Y-131381508D01*
X70449263Y-131353230D01*
X70438725Y-131323778D01*
X70431125Y-131293435D01*
X70426535Y-131262493D01*
X70425000Y-131231250D01*
X70425000Y-130593750D01*
X70426535Y-130562507D01*
X70431125Y-130531565D01*
X70438725Y-130501222D01*
X70449263Y-130471770D01*
X70462638Y-130443492D01*
X70478719Y-130416662D01*
X70497353Y-130391537D01*
X70518360Y-130368360D01*
X70541537Y-130347353D01*
X70566662Y-130328719D01*
X70593492Y-130312638D01*
X70621770Y-130299263D01*
X70651222Y-130288725D01*
X70681565Y-130281125D01*
X70712507Y-130276535D01*
X70743750Y-130275000D01*
X71456250Y-130275000D01*
X71487493Y-130276535D01*
X71487493Y-130276535D01*
G37*
D12*
X71100000Y-130912500D03*
G04 #@! TD*
D11*
G04 #@! TO.C,D3*
G36*
X73287493Y-130276535D02*
X73318435Y-130281125D01*
X73348778Y-130288725D01*
X73378230Y-130299263D01*
X73406508Y-130312638D01*
X73433338Y-130328719D01*
X73458463Y-130347353D01*
X73481640Y-130368360D01*
X73502647Y-130391537D01*
X73521281Y-130416662D01*
X73537362Y-130443492D01*
X73550737Y-130471770D01*
X73561275Y-130501222D01*
X73568875Y-130531565D01*
X73573465Y-130562507D01*
X73575000Y-130593750D01*
X73575000Y-131231250D01*
X73573465Y-131262493D01*
X73568875Y-131293435D01*
X73561275Y-131323778D01*
X73550737Y-131353230D01*
X73537362Y-131381508D01*
X73521281Y-131408338D01*
X73502647Y-131433463D01*
X73481640Y-131456640D01*
X73458463Y-131477647D01*
X73433338Y-131496281D01*
X73406508Y-131512362D01*
X73378230Y-131525737D01*
X73348778Y-131536275D01*
X73318435Y-131543875D01*
X73287493Y-131548465D01*
X73256250Y-131550000D01*
X72543750Y-131550000D01*
X72512507Y-131548465D01*
X72481565Y-131543875D01*
X72451222Y-131536275D01*
X72421770Y-131525737D01*
X72393492Y-131512362D01*
X72366662Y-131496281D01*
X72341537Y-131477647D01*
X72318360Y-131456640D01*
X72297353Y-131433463D01*
X72278719Y-131408338D01*
X72262638Y-131381508D01*
X72249263Y-131353230D01*
X72238725Y-131323778D01*
X72231125Y-131293435D01*
X72226535Y-131262493D01*
X72225000Y-131231250D01*
X72225000Y-130593750D01*
X72226535Y-130562507D01*
X72231125Y-130531565D01*
X72238725Y-130501222D01*
X72249263Y-130471770D01*
X72262638Y-130443492D01*
X72278719Y-130416662D01*
X72297353Y-130391537D01*
X72318360Y-130368360D01*
X72341537Y-130347353D01*
X72366662Y-130328719D01*
X72393492Y-130312638D01*
X72421770Y-130299263D01*
X72451222Y-130288725D01*
X72481565Y-130281125D01*
X72512507Y-130276535D01*
X72543750Y-130275000D01*
X73256250Y-130275000D01*
X73287493Y-130276535D01*
X73287493Y-130276535D01*
G37*
D12*
X72900000Y-130912500D03*
D11*
G36*
X73287493Y-131851535D02*
X73318435Y-131856125D01*
X73348778Y-131863725D01*
X73378230Y-131874263D01*
X73406508Y-131887638D01*
X73433338Y-131903719D01*
X73458463Y-131922353D01*
X73481640Y-131943360D01*
X73502647Y-131966537D01*
X73521281Y-131991662D01*
X73537362Y-132018492D01*
X73550737Y-132046770D01*
X73561275Y-132076222D01*
X73568875Y-132106565D01*
X73573465Y-132137507D01*
X73575000Y-132168750D01*
X73575000Y-132806250D01*
X73573465Y-132837493D01*
X73568875Y-132868435D01*
X73561275Y-132898778D01*
X73550737Y-132928230D01*
X73537362Y-132956508D01*
X73521281Y-132983338D01*
X73502647Y-133008463D01*
X73481640Y-133031640D01*
X73458463Y-133052647D01*
X73433338Y-133071281D01*
X73406508Y-133087362D01*
X73378230Y-133100737D01*
X73348778Y-133111275D01*
X73318435Y-133118875D01*
X73287493Y-133123465D01*
X73256250Y-133125000D01*
X72543750Y-133125000D01*
X72512507Y-133123465D01*
X72481565Y-133118875D01*
X72451222Y-133111275D01*
X72421770Y-133100737D01*
X72393492Y-133087362D01*
X72366662Y-133071281D01*
X72341537Y-133052647D01*
X72318360Y-133031640D01*
X72297353Y-133008463D01*
X72278719Y-132983338D01*
X72262638Y-132956508D01*
X72249263Y-132928230D01*
X72238725Y-132898778D01*
X72231125Y-132868435D01*
X72226535Y-132837493D01*
X72225000Y-132806250D01*
X72225000Y-132168750D01*
X72226535Y-132137507D01*
X72231125Y-132106565D01*
X72238725Y-132076222D01*
X72249263Y-132046770D01*
X72262638Y-132018492D01*
X72278719Y-131991662D01*
X72297353Y-131966537D01*
X72318360Y-131943360D01*
X72341537Y-131922353D01*
X72366662Y-131903719D01*
X72393492Y-131887638D01*
X72421770Y-131874263D01*
X72451222Y-131863725D01*
X72481565Y-131856125D01*
X72512507Y-131851535D01*
X72543750Y-131850000D01*
X73256250Y-131850000D01*
X73287493Y-131851535D01*
X73287493Y-131851535D01*
G37*
D12*
X72900000Y-132487500D03*
G04 #@! TD*
D11*
G04 #@! TO.C,D4*
G36*
X76887493Y-131851535D02*
X76918435Y-131856125D01*
X76948778Y-131863725D01*
X76978230Y-131874263D01*
X77006508Y-131887638D01*
X77033338Y-131903719D01*
X77058463Y-131922353D01*
X77081640Y-131943360D01*
X77102647Y-131966537D01*
X77121281Y-131991662D01*
X77137362Y-132018492D01*
X77150737Y-132046770D01*
X77161275Y-132076222D01*
X77168875Y-132106565D01*
X77173465Y-132137507D01*
X77175000Y-132168750D01*
X77175000Y-132806250D01*
X77173465Y-132837493D01*
X77168875Y-132868435D01*
X77161275Y-132898778D01*
X77150737Y-132928230D01*
X77137362Y-132956508D01*
X77121281Y-132983338D01*
X77102647Y-133008463D01*
X77081640Y-133031640D01*
X77058463Y-133052647D01*
X77033338Y-133071281D01*
X77006508Y-133087362D01*
X76978230Y-133100737D01*
X76948778Y-133111275D01*
X76918435Y-133118875D01*
X76887493Y-133123465D01*
X76856250Y-133125000D01*
X76143750Y-133125000D01*
X76112507Y-133123465D01*
X76081565Y-133118875D01*
X76051222Y-133111275D01*
X76021770Y-133100737D01*
X75993492Y-133087362D01*
X75966662Y-133071281D01*
X75941537Y-133052647D01*
X75918360Y-133031640D01*
X75897353Y-133008463D01*
X75878719Y-132983338D01*
X75862638Y-132956508D01*
X75849263Y-132928230D01*
X75838725Y-132898778D01*
X75831125Y-132868435D01*
X75826535Y-132837493D01*
X75825000Y-132806250D01*
X75825000Y-132168750D01*
X75826535Y-132137507D01*
X75831125Y-132106565D01*
X75838725Y-132076222D01*
X75849263Y-132046770D01*
X75862638Y-132018492D01*
X75878719Y-131991662D01*
X75897353Y-131966537D01*
X75918360Y-131943360D01*
X75941537Y-131922353D01*
X75966662Y-131903719D01*
X75993492Y-131887638D01*
X76021770Y-131874263D01*
X76051222Y-131863725D01*
X76081565Y-131856125D01*
X76112507Y-131851535D01*
X76143750Y-131850000D01*
X76856250Y-131850000D01*
X76887493Y-131851535D01*
X76887493Y-131851535D01*
G37*
D12*
X76500000Y-132487500D03*
D11*
G36*
X76887493Y-130276535D02*
X76918435Y-130281125D01*
X76948778Y-130288725D01*
X76978230Y-130299263D01*
X77006508Y-130312638D01*
X77033338Y-130328719D01*
X77058463Y-130347353D01*
X77081640Y-130368360D01*
X77102647Y-130391537D01*
X77121281Y-130416662D01*
X77137362Y-130443492D01*
X77150737Y-130471770D01*
X77161275Y-130501222D01*
X77168875Y-130531565D01*
X77173465Y-130562507D01*
X77175000Y-130593750D01*
X77175000Y-131231250D01*
X77173465Y-131262493D01*
X77168875Y-131293435D01*
X77161275Y-131323778D01*
X77150737Y-131353230D01*
X77137362Y-131381508D01*
X77121281Y-131408338D01*
X77102647Y-131433463D01*
X77081640Y-131456640D01*
X77058463Y-131477647D01*
X77033338Y-131496281D01*
X77006508Y-131512362D01*
X76978230Y-131525737D01*
X76948778Y-131536275D01*
X76918435Y-131543875D01*
X76887493Y-131548465D01*
X76856250Y-131550000D01*
X76143750Y-131550000D01*
X76112507Y-131548465D01*
X76081565Y-131543875D01*
X76051222Y-131536275D01*
X76021770Y-131525737D01*
X75993492Y-131512362D01*
X75966662Y-131496281D01*
X75941537Y-131477647D01*
X75918360Y-131456640D01*
X75897353Y-131433463D01*
X75878719Y-131408338D01*
X75862638Y-131381508D01*
X75849263Y-131353230D01*
X75838725Y-131323778D01*
X75831125Y-131293435D01*
X75826535Y-131262493D01*
X75825000Y-131231250D01*
X75825000Y-130593750D01*
X75826535Y-130562507D01*
X75831125Y-130531565D01*
X75838725Y-130501222D01*
X75849263Y-130471770D01*
X75862638Y-130443492D01*
X75878719Y-130416662D01*
X75897353Y-130391537D01*
X75918360Y-130368360D01*
X75941537Y-130347353D01*
X75966662Y-130328719D01*
X75993492Y-130312638D01*
X76021770Y-130299263D01*
X76051222Y-130288725D01*
X76081565Y-130281125D01*
X76112507Y-130276535D01*
X76143750Y-130275000D01*
X76856250Y-130275000D01*
X76887493Y-130276535D01*
X76887493Y-130276535D01*
G37*
D12*
X76500000Y-130912500D03*
G04 #@! TD*
D11*
G04 #@! TO.C,D5*
G36*
X75087493Y-130276535D02*
X75118435Y-130281125D01*
X75148778Y-130288725D01*
X75178230Y-130299263D01*
X75206508Y-130312638D01*
X75233338Y-130328719D01*
X75258463Y-130347353D01*
X75281640Y-130368360D01*
X75302647Y-130391537D01*
X75321281Y-130416662D01*
X75337362Y-130443492D01*
X75350737Y-130471770D01*
X75361275Y-130501222D01*
X75368875Y-130531565D01*
X75373465Y-130562507D01*
X75375000Y-130593750D01*
X75375000Y-131231250D01*
X75373465Y-131262493D01*
X75368875Y-131293435D01*
X75361275Y-131323778D01*
X75350737Y-131353230D01*
X75337362Y-131381508D01*
X75321281Y-131408338D01*
X75302647Y-131433463D01*
X75281640Y-131456640D01*
X75258463Y-131477647D01*
X75233338Y-131496281D01*
X75206508Y-131512362D01*
X75178230Y-131525737D01*
X75148778Y-131536275D01*
X75118435Y-131543875D01*
X75087493Y-131548465D01*
X75056250Y-131550000D01*
X74343750Y-131550000D01*
X74312507Y-131548465D01*
X74281565Y-131543875D01*
X74251222Y-131536275D01*
X74221770Y-131525737D01*
X74193492Y-131512362D01*
X74166662Y-131496281D01*
X74141537Y-131477647D01*
X74118360Y-131456640D01*
X74097353Y-131433463D01*
X74078719Y-131408338D01*
X74062638Y-131381508D01*
X74049263Y-131353230D01*
X74038725Y-131323778D01*
X74031125Y-131293435D01*
X74026535Y-131262493D01*
X74025000Y-131231250D01*
X74025000Y-130593750D01*
X74026535Y-130562507D01*
X74031125Y-130531565D01*
X74038725Y-130501222D01*
X74049263Y-130471770D01*
X74062638Y-130443492D01*
X74078719Y-130416662D01*
X74097353Y-130391537D01*
X74118360Y-130368360D01*
X74141537Y-130347353D01*
X74166662Y-130328719D01*
X74193492Y-130312638D01*
X74221770Y-130299263D01*
X74251222Y-130288725D01*
X74281565Y-130281125D01*
X74312507Y-130276535D01*
X74343750Y-130275000D01*
X75056250Y-130275000D01*
X75087493Y-130276535D01*
X75087493Y-130276535D01*
G37*
D12*
X74700000Y-130912500D03*
D11*
G36*
X75087493Y-131851535D02*
X75118435Y-131856125D01*
X75148778Y-131863725D01*
X75178230Y-131874263D01*
X75206508Y-131887638D01*
X75233338Y-131903719D01*
X75258463Y-131922353D01*
X75281640Y-131943360D01*
X75302647Y-131966537D01*
X75321281Y-131991662D01*
X75337362Y-132018492D01*
X75350737Y-132046770D01*
X75361275Y-132076222D01*
X75368875Y-132106565D01*
X75373465Y-132137507D01*
X75375000Y-132168750D01*
X75375000Y-132806250D01*
X75373465Y-132837493D01*
X75368875Y-132868435D01*
X75361275Y-132898778D01*
X75350737Y-132928230D01*
X75337362Y-132956508D01*
X75321281Y-132983338D01*
X75302647Y-133008463D01*
X75281640Y-133031640D01*
X75258463Y-133052647D01*
X75233338Y-133071281D01*
X75206508Y-133087362D01*
X75178230Y-133100737D01*
X75148778Y-133111275D01*
X75118435Y-133118875D01*
X75087493Y-133123465D01*
X75056250Y-133125000D01*
X74343750Y-133125000D01*
X74312507Y-133123465D01*
X74281565Y-133118875D01*
X74251222Y-133111275D01*
X74221770Y-133100737D01*
X74193492Y-133087362D01*
X74166662Y-133071281D01*
X74141537Y-133052647D01*
X74118360Y-133031640D01*
X74097353Y-133008463D01*
X74078719Y-132983338D01*
X74062638Y-132956508D01*
X74049263Y-132928230D01*
X74038725Y-132898778D01*
X74031125Y-132868435D01*
X74026535Y-132837493D01*
X74025000Y-132806250D01*
X74025000Y-132168750D01*
X74026535Y-132137507D01*
X74031125Y-132106565D01*
X74038725Y-132076222D01*
X74049263Y-132046770D01*
X74062638Y-132018492D01*
X74078719Y-131991662D01*
X74097353Y-131966537D01*
X74118360Y-131943360D01*
X74141537Y-131922353D01*
X74166662Y-131903719D01*
X74193492Y-131887638D01*
X74221770Y-131874263D01*
X74251222Y-131863725D01*
X74281565Y-131856125D01*
X74312507Y-131851535D01*
X74343750Y-131850000D01*
X75056250Y-131850000D01*
X75087493Y-131851535D01*
X75087493Y-131851535D01*
G37*
D12*
X74700000Y-132487500D03*
G04 #@! TD*
D11*
G04 #@! TO.C,D8*
G36*
X78687493Y-131839035D02*
X78718435Y-131843625D01*
X78748778Y-131851225D01*
X78778230Y-131861763D01*
X78806508Y-131875138D01*
X78833338Y-131891219D01*
X78858463Y-131909853D01*
X78881640Y-131930860D01*
X78902647Y-131954037D01*
X78921281Y-131979162D01*
X78937362Y-132005992D01*
X78950737Y-132034270D01*
X78961275Y-132063722D01*
X78968875Y-132094065D01*
X78973465Y-132125007D01*
X78975000Y-132156250D01*
X78975000Y-132793750D01*
X78973465Y-132824993D01*
X78968875Y-132855935D01*
X78961275Y-132886278D01*
X78950737Y-132915730D01*
X78937362Y-132944008D01*
X78921281Y-132970838D01*
X78902647Y-132995963D01*
X78881640Y-133019140D01*
X78858463Y-133040147D01*
X78833338Y-133058781D01*
X78806508Y-133074862D01*
X78778230Y-133088237D01*
X78748778Y-133098775D01*
X78718435Y-133106375D01*
X78687493Y-133110965D01*
X78656250Y-133112500D01*
X77943750Y-133112500D01*
X77912507Y-133110965D01*
X77881565Y-133106375D01*
X77851222Y-133098775D01*
X77821770Y-133088237D01*
X77793492Y-133074862D01*
X77766662Y-133058781D01*
X77741537Y-133040147D01*
X77718360Y-133019140D01*
X77697353Y-132995963D01*
X77678719Y-132970838D01*
X77662638Y-132944008D01*
X77649263Y-132915730D01*
X77638725Y-132886278D01*
X77631125Y-132855935D01*
X77626535Y-132824993D01*
X77625000Y-132793750D01*
X77625000Y-132156250D01*
X77626535Y-132125007D01*
X77631125Y-132094065D01*
X77638725Y-132063722D01*
X77649263Y-132034270D01*
X77662638Y-132005992D01*
X77678719Y-131979162D01*
X77697353Y-131954037D01*
X77718360Y-131930860D01*
X77741537Y-131909853D01*
X77766662Y-131891219D01*
X77793492Y-131875138D01*
X77821770Y-131861763D01*
X77851222Y-131851225D01*
X77881565Y-131843625D01*
X77912507Y-131839035D01*
X77943750Y-131837500D01*
X78656250Y-131837500D01*
X78687493Y-131839035D01*
X78687493Y-131839035D01*
G37*
D12*
X78300000Y-132475000D03*
D11*
G36*
X78687493Y-130264035D02*
X78718435Y-130268625D01*
X78748778Y-130276225D01*
X78778230Y-130286763D01*
X78806508Y-130300138D01*
X78833338Y-130316219D01*
X78858463Y-130334853D01*
X78881640Y-130355860D01*
X78902647Y-130379037D01*
X78921281Y-130404162D01*
X78937362Y-130430992D01*
X78950737Y-130459270D01*
X78961275Y-130488722D01*
X78968875Y-130519065D01*
X78973465Y-130550007D01*
X78975000Y-130581250D01*
X78975000Y-131218750D01*
X78973465Y-131249993D01*
X78968875Y-131280935D01*
X78961275Y-131311278D01*
X78950737Y-131340730D01*
X78937362Y-131369008D01*
X78921281Y-131395838D01*
X78902647Y-131420963D01*
X78881640Y-131444140D01*
X78858463Y-131465147D01*
X78833338Y-131483781D01*
X78806508Y-131499862D01*
X78778230Y-131513237D01*
X78748778Y-131523775D01*
X78718435Y-131531375D01*
X78687493Y-131535965D01*
X78656250Y-131537500D01*
X77943750Y-131537500D01*
X77912507Y-131535965D01*
X77881565Y-131531375D01*
X77851222Y-131523775D01*
X77821770Y-131513237D01*
X77793492Y-131499862D01*
X77766662Y-131483781D01*
X77741537Y-131465147D01*
X77718360Y-131444140D01*
X77697353Y-131420963D01*
X77678719Y-131395838D01*
X77662638Y-131369008D01*
X77649263Y-131340730D01*
X77638725Y-131311278D01*
X77631125Y-131280935D01*
X77626535Y-131249993D01*
X77625000Y-131218750D01*
X77625000Y-130581250D01*
X77626535Y-130550007D01*
X77631125Y-130519065D01*
X77638725Y-130488722D01*
X77649263Y-130459270D01*
X77662638Y-130430992D01*
X77678719Y-130404162D01*
X77697353Y-130379037D01*
X77718360Y-130355860D01*
X77741537Y-130334853D01*
X77766662Y-130316219D01*
X77793492Y-130300138D01*
X77821770Y-130286763D01*
X77851222Y-130276225D01*
X77881565Y-130268625D01*
X77912507Y-130264035D01*
X77943750Y-130262500D01*
X78656250Y-130262500D01*
X78687493Y-130264035D01*
X78687493Y-130264035D01*
G37*
D12*
X78300000Y-130900000D03*
G04 #@! TD*
D13*
G04 #@! TO.C,DCN1*
X92800000Y-115595000D03*
X92800000Y-116865000D03*
X92800000Y-118135000D03*
X92800000Y-119405000D03*
X100200000Y-119405000D03*
X100200000Y-118135000D03*
X100200000Y-116865000D03*
X100200000Y-115595000D03*
G04 #@! TD*
D14*
G04 #@! TO.C,J1*
X73000000Y-108600000D03*
D15*
X71000000Y-108600000D03*
G04 #@! TD*
G04 #@! TO.C,J2*
X83000000Y-108600000D03*
D14*
X85000000Y-108600000D03*
D15*
X81000000Y-108600000D03*
X79000000Y-108600000D03*
X77000000Y-108600000D03*
G04 #@! TD*
G04 #@! TO.C,J3*
X97400000Y-131400000D03*
D14*
X95400000Y-131400000D03*
D15*
X99400000Y-131400000D03*
G04 #@! TD*
G04 #@! TO.C,J4*
X85400000Y-131400000D03*
D14*
X81400000Y-131400000D03*
D15*
X83400000Y-131400000D03*
G04 #@! TD*
G04 #@! TO.C,J5*
X91400000Y-131400000D03*
D14*
X89400000Y-131400000D03*
G04 #@! TD*
D15*
G04 #@! TO.C,J8*
X89000000Y-108500000D03*
D14*
X89000000Y-106500000D03*
D15*
X91000000Y-106500000D03*
D16*
X91000000Y-108500000D03*
X93000000Y-106500000D03*
X93000000Y-108500000D03*
G04 #@! TD*
D17*
G04 #@! TO.C,SW1*
X63725000Y-119675000D03*
X63725000Y-115525000D03*
X65875000Y-119675000D03*
X65875000Y-115525000D03*
G04 #@! TD*
D18*
G04 #@! TO.C,U1*
X71214897Y-118625305D03*
D11*
G36*
X71002765Y-119544544D02*
X70295658Y-118837437D01*
X71427029Y-117706066D01*
X72134136Y-118413173D01*
X71002765Y-119544544D01*
X71002765Y-119544544D01*
G37*
D18*
X71780583Y-119190990D03*
D11*
G36*
X71568451Y-120110229D02*
X70861344Y-119403122D01*
X71992715Y-118271751D01*
X72699822Y-118978858D01*
X71568451Y-120110229D01*
X71568451Y-120110229D01*
G37*
D18*
X72346268Y-119756676D03*
D11*
G36*
X72134136Y-120675915D02*
X71427029Y-119968808D01*
X72558400Y-118837437D01*
X73265507Y-119544544D01*
X72134136Y-120675915D01*
X72134136Y-120675915D01*
G37*
D18*
X72911953Y-120322361D03*
D11*
G36*
X72699821Y-121241600D02*
X71992714Y-120534493D01*
X73124085Y-119403122D01*
X73831192Y-120110229D01*
X72699821Y-121241600D01*
X72699821Y-121241600D01*
G37*
D18*
X73477639Y-120888047D03*
D11*
G36*
X73265507Y-121807286D02*
X72558400Y-121100179D01*
X73689771Y-119968808D01*
X74396878Y-120675915D01*
X73265507Y-121807286D01*
X73265507Y-121807286D01*
G37*
D18*
X74043324Y-121453732D03*
D11*
G36*
X73831192Y-122372971D02*
X73124085Y-121665864D01*
X74255456Y-120534493D01*
X74962563Y-121241600D01*
X73831192Y-122372971D01*
X73831192Y-122372971D01*
G37*
D18*
X74609010Y-122019417D03*
D11*
G36*
X74396878Y-122938656D02*
X73689771Y-122231549D01*
X74821142Y-121100178D01*
X75528249Y-121807285D01*
X74396878Y-122938656D01*
X74396878Y-122938656D01*
G37*
D18*
X75174695Y-122585103D03*
D11*
G36*
X74962563Y-123504342D02*
X74255456Y-122797235D01*
X75386827Y-121665864D01*
X76093934Y-122372971D01*
X74962563Y-123504342D01*
X74962563Y-123504342D01*
G37*
D18*
X77225305Y-122585103D03*
D11*
G36*
X78144544Y-122797235D02*
X77437437Y-123504342D01*
X76306066Y-122372971D01*
X77013173Y-121665864D01*
X78144544Y-122797235D01*
X78144544Y-122797235D01*
G37*
D18*
X77790990Y-122019417D03*
D11*
G36*
X78710229Y-122231549D02*
X78003122Y-122938656D01*
X76871751Y-121807285D01*
X77578858Y-121100178D01*
X78710229Y-122231549D01*
X78710229Y-122231549D01*
G37*
D18*
X78356676Y-121453732D03*
D11*
G36*
X79275915Y-121665864D02*
X78568808Y-122372971D01*
X77437437Y-121241600D01*
X78144544Y-120534493D01*
X79275915Y-121665864D01*
X79275915Y-121665864D01*
G37*
D18*
X78922361Y-120888047D03*
D11*
G36*
X79841600Y-121100179D02*
X79134493Y-121807286D01*
X78003122Y-120675915D01*
X78710229Y-119968808D01*
X79841600Y-121100179D01*
X79841600Y-121100179D01*
G37*
D18*
X79488047Y-120322361D03*
D11*
G36*
X80407286Y-120534493D02*
X79700179Y-121241600D01*
X78568808Y-120110229D01*
X79275915Y-119403122D01*
X80407286Y-120534493D01*
X80407286Y-120534493D01*
G37*
D18*
X80053732Y-119756676D03*
D11*
G36*
X80972971Y-119968808D02*
X80265864Y-120675915D01*
X79134493Y-119544544D01*
X79841600Y-118837437D01*
X80972971Y-119968808D01*
X80972971Y-119968808D01*
G37*
D18*
X80619417Y-119190990D03*
D11*
G36*
X81538656Y-119403122D02*
X80831549Y-120110229D01*
X79700178Y-118978858D01*
X80407285Y-118271751D01*
X81538656Y-119403122D01*
X81538656Y-119403122D01*
G37*
D18*
X81185103Y-118625305D03*
D11*
G36*
X82104342Y-118837437D02*
X81397235Y-119544544D01*
X80265864Y-118413173D01*
X80972971Y-117706066D01*
X82104342Y-118837437D01*
X82104342Y-118837437D01*
G37*
D18*
X81185103Y-116574695D03*
D11*
G36*
X80972971Y-117493934D02*
X80265864Y-116786827D01*
X81397235Y-115655456D01*
X82104342Y-116362563D01*
X80972971Y-117493934D01*
X80972971Y-117493934D01*
G37*
D18*
X80619417Y-116009010D03*
D11*
G36*
X80407285Y-116928249D02*
X79700178Y-116221142D01*
X80831549Y-115089771D01*
X81538656Y-115796878D01*
X80407285Y-116928249D01*
X80407285Y-116928249D01*
G37*
D18*
X80053732Y-115443324D03*
D11*
G36*
X79841600Y-116362563D02*
X79134493Y-115655456D01*
X80265864Y-114524085D01*
X80972971Y-115231192D01*
X79841600Y-116362563D01*
X79841600Y-116362563D01*
G37*
D18*
X79488047Y-114877639D03*
D11*
G36*
X79275915Y-115796878D02*
X78568808Y-115089771D01*
X79700179Y-113958400D01*
X80407286Y-114665507D01*
X79275915Y-115796878D01*
X79275915Y-115796878D01*
G37*
D18*
X78922361Y-114311953D03*
D11*
G36*
X78710229Y-115231192D02*
X78003122Y-114524085D01*
X79134493Y-113392714D01*
X79841600Y-114099821D01*
X78710229Y-115231192D01*
X78710229Y-115231192D01*
G37*
D18*
X78356676Y-113746268D03*
D11*
G36*
X78144544Y-114665507D02*
X77437437Y-113958400D01*
X78568808Y-112827029D01*
X79275915Y-113534136D01*
X78144544Y-114665507D01*
X78144544Y-114665507D01*
G37*
D18*
X77790990Y-113180583D03*
D11*
G36*
X77578858Y-114099822D02*
X76871751Y-113392715D01*
X78003122Y-112261344D01*
X78710229Y-112968451D01*
X77578858Y-114099822D01*
X77578858Y-114099822D01*
G37*
D18*
X77225305Y-112614897D03*
D11*
G36*
X77013173Y-113534136D02*
X76306066Y-112827029D01*
X77437437Y-111695658D01*
X78144544Y-112402765D01*
X77013173Y-113534136D01*
X77013173Y-113534136D01*
G37*
D18*
X75174695Y-112614897D03*
D11*
G36*
X76093934Y-112827029D02*
X75386827Y-113534136D01*
X74255456Y-112402765D01*
X74962563Y-111695658D01*
X76093934Y-112827029D01*
X76093934Y-112827029D01*
G37*
D18*
X74609010Y-113180583D03*
D11*
G36*
X75528249Y-113392715D02*
X74821142Y-114099822D01*
X73689771Y-112968451D01*
X74396878Y-112261344D01*
X75528249Y-113392715D01*
X75528249Y-113392715D01*
G37*
D18*
X74043324Y-113746268D03*
D11*
G36*
X74962563Y-113958400D02*
X74255456Y-114665507D01*
X73124085Y-113534136D01*
X73831192Y-112827029D01*
X74962563Y-113958400D01*
X74962563Y-113958400D01*
G37*
D18*
X73477639Y-114311953D03*
D11*
G36*
X74396878Y-114524085D02*
X73689771Y-115231192D01*
X72558400Y-114099821D01*
X73265507Y-113392714D01*
X74396878Y-114524085D01*
X74396878Y-114524085D01*
G37*
D18*
X72911953Y-114877639D03*
D11*
G36*
X73831192Y-115089771D02*
X73124085Y-115796878D01*
X71992714Y-114665507D01*
X72699821Y-113958400D01*
X73831192Y-115089771D01*
X73831192Y-115089771D01*
G37*
D18*
X72346268Y-115443324D03*
D11*
G36*
X73265507Y-115655456D02*
X72558400Y-116362563D01*
X71427029Y-115231192D01*
X72134136Y-114524085D01*
X73265507Y-115655456D01*
X73265507Y-115655456D01*
G37*
D18*
X71780583Y-116009010D03*
D11*
G36*
X72699822Y-116221142D02*
X71992715Y-116928249D01*
X70861344Y-115796878D01*
X71568451Y-115089771D01*
X72699822Y-116221142D01*
X72699822Y-116221142D01*
G37*
D18*
X71214897Y-116574695D03*
D11*
G36*
X72134136Y-116786827D02*
X71427029Y-117493934D01*
X70295658Y-116362563D01*
X71002765Y-115655456D01*
X72134136Y-116786827D01*
X72134136Y-116786827D01*
G37*
G04 #@! TD*
D10*
G04 #@! TO.C,REF\002A\002A*
X105000000Y-110000000D03*
G04 #@! TD*
M02*
