M48
;DRILL file {KiCad (5.0.0)} date 01/23/19 06:14:14
;FORMAT={-:-/ absolute / metric / decimal}
FMAT,2
METRIC,TZ
T1C0.300
T2C0.762
T3C0.800
T4C3.200
%
G90
G05
M71
T1
X61.Y-110.
X61.Y-113.
X61.Y-116.
X61.Y-119.
X61.Y-122.
X61.Y-125.
X61.Y-128.
X61.Y-130.
X63.Y-108.
X63.Y-127.
X63.Y-132.
X63.5Y-117.
X63.5Y-118.
X63.5Y-121.5
X63.9Y-114.1
X65.Y-106.
X65.Y-134.
X66.Y-114.
X66.Y-117.
X66.Y-118.
X66.Y-121.5
X67.4Y-111.3
X67.5Y-108.5
X67.8Y-119.
X67.8Y-120.1
X68.Y-106.
X68.Y-123.
X68.Y-129.
X68.Y-134.
X68.1Y-130.3
X68.1Y-132.3
X68.9Y-111.4
X69.3Y-129.8
X69.5Y-110.
X69.5Y-116.
X70.Y-117.5
X70.4Y-107.
X70.5Y-120.2
X71.Y-122.05
X71.Y-134.
X71.1Y-129.8
X72.5Y-110.
X72.793Y-122.05
X72.9Y-129.8
X74.Y-134.
X74.7Y-129.8
X75.3Y-120.9
X75.99Y-119.29
X76.3Y-121.
X76.5Y-129.8
X77.Y-134.
X77.75Y-120.112
X78.3Y-129.8
X78.4Y-119.6
X79.4Y-125.4
X79.5Y-123.
X79.5Y-128.1
X80.8Y-127.2
X81.Y-123.
X81.Y-134.
X81.045Y-113.645
X81.5Y-129.6
X82.2Y-112.7
X82.5Y-117.
X82.6Y-127.2
X83.2Y-113.4
X83.3Y-129.6
X83.5Y-116.
X83.5Y-118.312
X83.5Y-123.
X84.Y-134.
X84.4Y-129.7
X84.5Y-123.
X84.5Y-125.3
X84.5Y-127.2
X85.2Y-120.9
X85.5Y-123.
X86.195Y-108.5
X86.6Y-129.8
X86.8Y-109.85
X86.8Y-111.15
X87.Y-114.5
X87.Y-116.5
X87.Y-118.5
X87.Y-134.
X87.3Y-112.7
X88.Y-120.9
X88.3Y-130.1
X88.6Y-129.1
X89.1Y-119.4
X89.5Y-122.5
X90.Y-134.
X90.1Y-114.2
X90.1Y-117.2
X90.2Y-121.5
X91.5Y-114.5
X92.4Y-121.3
X92.5Y-125.7
X93.Y-114.5
X93.Y-129.
X93.Y-134.
X94.Y-113.4
X94.1Y-125.7
X94.3Y-124.4
X94.5Y-115.
X94.5Y-117.
X94.5Y-121.3
X95.1Y-122.7
X95.9Y-123.5
X96.Y-134.
X96.5Y-106.
X96.5Y-108.5
X96.5Y-111.
X96.5Y-113.5
X96.5Y-115.5
X96.5Y-122.8
X97.869Y-121.869
X99.Y-106.
X99.Y-120.5
X99.Y-127.
X99.Y-129.
X99.Y-134.
X99.5Y-114.
X100.1Y-121.8
X101.5Y-120.5
X101.8Y-116.9
X101.8Y-119.4
X102.Y-106.
X102.Y-124.
X102.Y-126.5
X102.Y-129.
X102.Y-134.
X102.5Y-114.
X103.Y-121.8
X105.Y-106.
X105.Y-116.
X105.Y-119.5
X105.Y-134.
X107.Y-108.
X107.Y-127.
X107.Y-132.
X109.Y-110.
X109.Y-113.
X109.Y-116.
X109.Y-119.
X109.Y-122.
X109.Y-125.
X109.Y-128.
X109.Y-130.
T2
X91.Y-108.5
X93.Y-106.5
X93.Y-108.5
T3
X71.Y-108.6
X73.Y-108.6
X81.4Y-131.4
X83.4Y-131.4
X85.4Y-131.4
X95.4Y-131.4
X97.4Y-131.4
X99.4Y-131.4
X89.4Y-131.4
X91.4Y-131.4
X77.Y-108.6
X79.Y-108.6
X81.Y-108.6
X83.Y-108.6
X85.Y-108.6
X89.Y-106.5
X89.Y-108.5
X91.Y-106.5
T4
X65.Y-110.
X105.Y-110.
X65.Y-130.
X105.Y-130.
T0
M30
